<?xml version="1.0" encoding="UTF-8"?>
<svg id="Banner" xmlns="http://www.w3.org/2000/svg" version="1.1" viewBox="0 0 2284.69 750">
  <!-- Generator: Adobe Illustrator 30.1.0, SVG Export Plug-In . SVG Version: 2.1.1 Build 136)  -->
  <defs>
    <style>
      .st0, .st1 {
        fill: #f7ab1a;
      }

      .st2 {
        fill: #d8d8d8;
      }

      .st1 {
        display: none;
      }

      .st3 {
        fill: #b2b2b2;
      }
    </style>
  </defs>
  <g id="Signature">
    <g id="Address">
      <g>
        <path d="M877.6,528.92v-48.58h16.6c1.35,0,2.68.03,3.98.1,1.3.07,2.59.23,3.85.47,1.26.25,2.48.62,3.68,1.11,1.19.5,2.35,1.15,3.47,1.96,1.62,1.17,2.95,2.6,3.98,4.28,1.03,1.69,1.86,3.46,2.46,5.33.61,1.87,1.03,3.76,1.28,5.67.25,1.91.37,3.68.37,5.3s-.1,3.26-.3,4.92c-.2,1.67-.53,3.3-.98,4.89-.45,1.6-1.04,3.13-1.79,4.59-.74,1.46-1.68,2.8-2.8,4.01-1.12,1.26-2.35,2.27-3.68,3.04-1.33.77-2.72,1.36-4.18,1.79-1.46.43-2.98.72-4.55.88-1.58.16-3.17.24-4.79.24h-16.6ZM882.19,525.01h11c2.07,0,4.01-.12,5.83-.37,1.82-.25,3.68-.87,5.57-1.86,1.62-.81,2.95-1.91,3.98-3.31,1.03-1.39,1.86-2.91,2.46-4.55.61-1.64,1.03-3.36,1.28-5.16s.37-3.53.37-5.2c0-1.75-.11-3.54-.34-5.36-.23-1.82-.65-3.55-1.28-5.2-.63-1.64-1.48-3.15-2.56-4.52s-2.47-2.51-4.18-3.41c-1.44-.76-3.15-1.26-5.13-1.48-1.98-.22-3.98-.34-6-.34h-11v40.75Z"/>
        <path d="M939.6,529.87c-2.25-.04-4.35-.45-6.31-1.21-1.96-.76-3.67-1.91-5.13-3.44-1.46-1.53-2.62-3.44-3.47-5.73-.86-2.29-1.28-4.97-1.28-8.03,0-2.56.34-4.96,1.01-7.19.67-2.23,1.69-4.17,3.04-5.84,1.35-1.66,3.04-2.98,5.06-3.95,2.02-.97,4.38-1.45,7.08-1.45s5.13.48,7.15,1.45c2.02.97,3.71,2.27,5.06,3.91,1.35,1.64,2.35,3.59,3,5.84s.98,4.66.98,7.22c0,2.79-.38,5.31-1.15,7.56-.77,2.25-1.86,4.18-3.27,5.8s-3.13,2.87-5.13,3.74c-2,.88-4.22,1.32-6.65,1.32ZM951.48,511.45c0-2.07-.23-4-.67-5.8-.45-1.8-1.15-3.36-2.09-4.69-.94-1.33-2.16-2.37-3.64-3.14s-3.31-1.15-5.46-1.15-3.92.42-5.43,1.25c-1.51.83-2.73,1.93-3.68,3.31-.94,1.37-1.64,2.95-2.09,4.72-.45,1.78-.67,3.61-.67,5.5,0,2.16.26,4.15.78,5.97.52,1.82,1.27,3.38,2.26,4.69.99,1.31,2.23,2.32,3.71,3.04,1.48.72,3.19,1.08,5.13,1.08,2.11,0,3.92-.42,5.43-1.25,1.51-.83,2.73-1.95,3.68-3.34.94-1.39,1.64-2.97,2.09-4.72.45-1.75.67-3.58.67-5.46Z"/>
        <path d="M967.26,528.92h-4.05v-34.95h4.05v4.86c1.62-1.71,3.29-3.1,5.03-4.18,1.73-1.08,3.81-1.62,6.24-1.62,2.16,0,4.16.37,6,1.11,1.84.74,3.4,2.04,4.66,3.88.85,1.26,1.36,2.55,1.52,3.88.16,1.33.24,2.71.24,4.15v22.87h-4.05v-22.8c0-3.15-.7-5.51-2.09-7.08-1.39-1.57-3.71-2.36-6.95-2.36-1.26,0-2.41.19-3.44.57-1.04.38-1.97.89-2.8,1.52-.83.63-1.54,1.35-2.12,2.16-.58.81-1.04,1.66-1.35,2.56-.4,1.12-.65,2.2-.74,3.24-.09,1.04-.13,2.16-.13,3.37v18.82ZM966.99,489.39c.09-.81.25-1.54.47-2.19.22-.65.52-1.25.88-1.79.67-.94,1.54-1.65,2.6-2.12,1.06-.47,2.17-.57,3.34-.3.63.13,1.3.36,2.02.67.72.32,1.45.64,2.19.98.74.34,1.46.63,2.16.88.7.25,1.34.37,1.92.37.99,0,1.69-.36,2.09-1.08.41-.72.7-1.48.88-2.29h2.56c-.05.45-.12.89-.24,1.32-.11.43-.21.84-.3,1.25-.5,1.08-1.12,2.02-1.89,2.83-.77.81-1.8,1.21-3.1,1.21-.95,0-1.83-.16-2.67-.47-.83-.31-1.65-.66-2.46-1.05-.81-.38-1.61-.73-2.39-1.05-.79-.31-1.56-.47-2.33-.47-1.04,0-1.78.34-2.23,1.01-.45.67-.81,1.44-1.08,2.29h-2.43Z"/>
        <path d="M1016.78,508.55c.76-.09,1.68-.22,2.73-.4s1.92-.43,2.6-.74c.67-.31,1.09-.84,1.25-1.59.16-.74.24-1.43.24-2.06,0-2.07-.66-3.77-1.99-5.09-1.33-1.33-3.57-1.99-6.71-1.99-1.39,0-2.68.12-3.85.37-1.17.25-2.19.67-3.07,1.28s-1.6,1.42-2.16,2.43c-.56,1.01-.93,2.28-1.11,3.81h-4.12c.13-2.07.61-3.83,1.42-5.3.81-1.46,1.86-2.65,3.14-3.58,1.28-.92,2.77-1.6,4.45-2.02,1.69-.43,3.47-.64,5.36-.64,1.75,0,3.41.19,4.96.57,1.55.38,2.9.99,4.05,1.82,1.15.83,2.05,1.95,2.7,3.34.65,1.39.98,3.1.98,5.13v19.03c0,1.58.28,2.58.84,3,.56.43,1.7.33,3.41-.3v3.17c-.32.09-.78.22-1.38.4-.61.18-1.2.27-1.79.27-.63,0-1.24-.07-1.82-.2-.67-.09-1.21-.3-1.62-.64-.4-.34-.73-.74-.98-1.21-.25-.47-.42-.99-.51-1.55-.09-.56-.13-1.16-.13-1.79-1.71,1.89-3.67,3.33-5.87,4.32-2.2.99-4.59,1.48-7.15,1.48-1.53,0-3-.2-4.42-.61-1.42-.4-2.67-1.03-3.75-1.89-1.08-.85-1.93-1.9-2.56-3.14s-.94-2.71-.94-4.42c0-5.94,4.07-9.44,12.21-10.52l5.6-.74ZM1023.6,510.57c-1.71.72-3.44,1.19-5.2,1.42-1.75.23-3.51.4-5.26.54-3.1.23-5.52.92-7.25,2.09-1.73,1.17-2.6,2.95-2.6,5.33,0,1.08.21,2.01.64,2.8.43.79.99,1.44,1.69,1.96.7.52,1.51.9,2.43,1.15.92.25,1.86.37,2.8.37,1.62,0,3.19-.2,4.72-.61,1.53-.41,2.89-1.02,4.08-1.86,1.19-.83,2.15-1.89,2.87-3.17.72-1.28,1.08-2.8,1.08-4.55v-5.46Z"/>
        <path d="M1057.6,528.92v-48.58h17.54c2.83,0,5.26.29,7.29.88,2.02.58,3.68,1.42,4.96,2.5,1.28,1.08,2.21,2.37,2.8,3.88.58,1.51.88,3.16.88,4.96s-.23,3.18-.67,4.42c-.45,1.24-1.04,2.27-1.75,3.1-.72.83-1.54,1.48-2.46,1.96-.92.47-1.88.8-2.87.98v.13c3.37.5,5.88,1.82,7.52,3.98,1.64,2.16,2.46,4.86,2.46,8.1,0,2.52-.39,4.66-1.18,6.41-.79,1.75-1.88,3.17-3.27,4.25-1.39,1.08-3.07,1.86-5.03,2.33-1.96.47-4.08.71-6.38.71h-19.83ZM1062.19,501.8h11.6c2.38,0,4.39-.2,6-.61,1.62-.41,2.92-1,3.91-1.79.99-.79,1.7-1.75,2.12-2.9.43-1.15.64-2.46.64-3.95s-.25-2.82-.74-3.88-1.28-1.91-2.36-2.56c-1.08-.65-2.49-1.12-4.22-1.42-1.73-.29-3.86-.44-6.38-.44h-10.59v17.54ZM1062.19,525.01h11.67c2.52,0,4.71-.11,6.58-.34,1.87-.22,3.41-.69,4.62-1.38,1.21-.7,2.12-1.69,2.73-2.97.61-1.28.91-2.98.91-5.09s-.34-3.65-1.01-4.89c-.67-1.24-1.64-2.19-2.9-2.87-1.26-.67-2.77-1.14-4.52-1.38-1.75-.25-3.71-.37-5.87-.37h-12.21v19.29Z"/>
        <path d="M1106.24,528.92h-4.05v-34.95h4.05v6.54h.13c1.12-2.79,2.57-4.73,4.35-5.84,1.78-1.1,4.13-1.65,7.05-1.65v4.38c-2.29-.04-4.18.32-5.67,1.08s-2.67,1.8-3.54,3.1c-.88,1.31-1.48,2.85-1.82,4.62-.34,1.78-.51,3.63-.51,5.57v17.14Z"/>
        <path d="M1124.86,486.35v-6h4.45v6h-4.45ZM1125.07,528.92v-34.95h4.05v34.95h-4.05Z"/>
        <path d="M1166.42,493.97h4.05v31.57c0,2.34-.24,4.58-.71,6.71-.47,2.14-1.32,4.01-2.53,5.63-1.21,1.62-2.88,2.91-4.99,3.88-2.11.97-4.83,1.45-8.16,1.45-2.56,0-4.77-.33-6.61-.98-1.84-.65-3.35-1.47-4.52-2.46-1.17-.99-2.06-2.08-2.67-3.27-.61-1.19-.93-2.31-.98-3.34h4.32c.31,1.3.81,2.37,1.48,3.21.67.83,1.47,1.48,2.4,1.96.92.47,1.94.8,3.07.98,1.12.18,2.29.27,3.51.27,2.74,0,4.95-.47,6.61-1.42,1.66-.95,2.92-2.18,3.78-3.71.85-1.53,1.41-3.26,1.65-5.2.25-1.93.35-3.91.3-5.94-1.3,2.16-3.09,3.79-5.36,4.89-2.27,1.1-4.64,1.65-7.12,1.65-2.65,0-4.96-.51-6.92-1.52-1.96-1.01-3.58-2.36-4.86-4.05s-2.24-3.65-2.87-5.9c-.63-2.25-.94-4.59-.94-7.02,0-2.56.29-4.97.88-7.22.58-2.25,1.52-4.19,2.8-5.84,1.28-1.64,2.91-2.93,4.89-3.88,1.98-.94,4.38-1.42,7.22-1.42,1.12,0,2.27.16,3.44.47,1.17.32,2.3.77,3.41,1.35,1.1.58,2.11,1.33,3.04,2.23.92.9,1.67,1.91,2.26,3.04h.13v-6.14ZM1166.42,511.58c0-2.11-.26-4.08-.78-5.9-.52-1.82-1.27-3.4-2.26-4.72-.99-1.33-2.23-2.37-3.71-3.14s-3.17-1.15-5.06-1.15c-1.71,0-3.28.3-4.72.91s-2.7,1.5-3.78,2.67c-1.08,1.17-1.92,2.6-2.53,4.28s-.91,3.63-.91,5.84c-.09,2.2.09,4.26.54,6.17.45,1.91,1.17,3.59,2.16,5.03.99,1.44,2.25,2.58,3.78,3.41s3.35,1.25,5.46,1.25c1.84,0,3.5-.39,4.96-1.18,1.46-.79,2.7-1.84,3.71-3.17,1.01-1.33,1.79-2.88,2.33-4.66.54-1.78.81-3.65.81-5.63Z"/>
        <path d="M1181.06,486.35v-6h4.45v6h-4.45ZM1181.26,528.92v-34.95h4.05v34.95h-4.05Z"/>
        <path d="M1222.62,480.35h4.05v48.58h-4.05v-6.14h-.13c-.58,1.17-1.34,2.19-2.26,3.07-.92.88-1.93,1.61-3.04,2.19-1.1.58-2.24,1.03-3.41,1.35-1.17.31-2.32.47-3.44.47-2.83,0-5.24-.47-7.22-1.42-1.98-.94-3.61-2.24-4.89-3.88-1.28-1.64-2.22-3.59-2.8-5.84-.58-2.25-.88-4.66-.88-7.22,0-2.43.31-4.77.94-7.02.63-2.25,1.58-4.22,2.87-5.9s2.9-3.04,4.86-4.05c1.96-1.01,4.26-1.52,6.92-1.52,2.47,0,4.85.55,7.12,1.65,2.27,1.1,4.06,2.73,5.36,4.89v-19.23ZM1222.62,511.31c0-1.98-.27-3.86-.81-5.63-.54-1.78-1.32-3.33-2.33-4.66-1.01-1.33-2.25-2.38-3.71-3.17-1.46-.79-3.12-1.18-4.96-1.18-2.11,0-3.94.42-5.46,1.25-1.53.83-2.79,1.97-3.78,3.41-.99,1.44-1.71,3.12-2.16,5.03-.45,1.91-.63,3.97-.54,6.17,0,2.2.3,4.15.91,5.84s1.45,3.12,2.53,4.28c1.08,1.17,2.34,2.06,3.78,2.67s3.01.91,4.72.91c1.89,0,3.58-.38,5.06-1.15,1.48-.76,2.72-1.81,3.71-3.14.99-1.33,1.74-2.9,2.26-4.72.52-1.82.78-3.79.78-5.9Z"/>
        <path d="M1252.91,508.55c.76-.09,1.68-.22,2.73-.4s1.92-.43,2.6-.74c.67-.31,1.09-.84,1.25-1.59.16-.74.24-1.43.24-2.06,0-2.07-.66-3.77-1.99-5.09-1.33-1.33-3.57-1.99-6.71-1.99-1.39,0-2.68.12-3.85.37-1.17.25-2.19.67-3.07,1.28s-1.6,1.42-2.16,2.43c-.56,1.01-.93,2.28-1.11,3.81h-4.12c.13-2.07.61-3.83,1.42-5.3.81-1.46,1.86-2.65,3.14-3.58,1.28-.92,2.77-1.6,4.45-2.02,1.69-.43,3.47-.64,5.36-.64,1.75,0,3.41.19,4.96.57,1.55.38,2.9.99,4.05,1.82,1.15.83,2.05,1.95,2.7,3.34.65,1.39.98,3.1.98,5.13v19.03c0,1.58.28,2.58.84,3,.56.43,1.7.33,3.41-.3v3.17c-.32.09-.78.22-1.38.4-.61.18-1.2.27-1.79.27-.63,0-1.24-.07-1.82-.2-.67-.09-1.21-.3-1.62-.64-.4-.34-.73-.74-.98-1.21-.25-.47-.42-.99-.51-1.55-.09-.56-.13-1.16-.13-1.79-1.71,1.89-3.67,3.33-5.87,4.32-2.2.99-4.59,1.48-7.15,1.48-1.53,0-3-.2-4.42-.61-1.42-.4-2.67-1.03-3.75-1.89-1.08-.85-1.93-1.9-2.56-3.14s-.94-2.71-.94-4.42c0-5.94,4.07-9.44,12.21-10.52l5.6-.74ZM1259.73,510.57c-1.71.72-3.44,1.19-5.2,1.42-1.75.23-3.51.4-5.26.54-3.1.23-5.52.92-7.25,2.09-1.73,1.17-2.6,2.95-2.6,5.33,0,1.08.21,2.01.64,2.8.43.79.99,1.44,1.69,1.96.7.52,1.51.9,2.43,1.15.92.25,1.86.37,2.8.37,1.62,0,3.19-.2,4.72-.61,1.53-.41,2.89-1.02,4.08-1.86,1.19-.83,2.15-1.89,2.87-3.17.72-1.28,1.08-2.8,1.08-4.55v-5.46Z"/>
        <path d="M1281.31,530.95c0,1.98-.46,3.56-1.38,4.76-.92,1.19-2.1,2.01-3.54,2.46v-2.5c.54-.36,1.06-.86,1.55-1.48.49-.63.74-1.62.74-2.97v-2.29h-2.29v-5.94h4.92v7.96Z"/>
        <path d="M1308.1,480.35h35.35v3.91h-15.38v44.66h-4.59v-44.66h-15.38v-3.91Z"/>
        <path d="M1363.29,529.87c-2.25-.04-4.35-.45-6.31-1.21-1.96-.76-3.67-1.91-5.13-3.44-1.46-1.53-2.62-3.44-3.47-5.73-.86-2.29-1.28-4.97-1.28-8.03,0-2.56.34-4.96,1.01-7.19.67-2.23,1.69-4.17,3.04-5.84,1.35-1.66,3.04-2.98,5.06-3.95,2.02-.97,4.38-1.45,7.08-1.45s5.13.48,7.15,1.45c2.02.97,3.71,2.27,5.06,3.91,1.35,1.64,2.35,3.59,3,5.84s.98,4.66.98,7.22c0,2.79-.38,5.31-1.15,7.56-.77,2.25-1.86,4.18-3.27,5.8s-3.13,2.87-5.13,3.74c-2,.88-4.22,1.32-6.65,1.32ZM1375.16,511.45c0-2.07-.23-4-.67-5.8-.45-1.8-1.15-3.36-2.09-4.69-.94-1.33-2.16-2.37-3.64-3.14s-3.31-1.15-5.46-1.15-3.92.42-5.43,1.25c-1.51.83-2.73,1.93-3.68,3.31-.94,1.37-1.64,2.95-2.09,4.72-.45,1.78-.67,3.61-.67,5.5,0,2.16.26,4.15.78,5.97.52,1.82,1.27,3.38,2.26,4.69.99,1.31,2.23,2.32,3.71,3.04,1.48.72,3.19,1.08,5.13,1.08,2.11,0,3.92-.42,5.43-1.25,1.51-.83,2.73-1.95,3.68-3.34.94-1.39,1.64-2.97,2.09-4.72.45-1.75.67-3.58.67-5.46Z"/>
        <path d="M1387.51,528.92v-48.58h4.05v48.58h-4.05Z"/>
        <path d="M1415.77,529.87c-2.25-.04-4.35-.45-6.31-1.21-1.96-.76-3.67-1.91-5.13-3.44-1.46-1.53-2.62-3.44-3.47-5.73-.86-2.29-1.28-4.97-1.28-8.03,0-2.56.34-4.96,1.01-7.19.67-2.23,1.69-4.17,3.04-5.84,1.35-1.66,3.04-2.98,5.06-3.95,2.02-.97,4.38-1.45,7.08-1.45s5.13.48,7.15,1.45c2.02.97,3.71,2.27,5.06,3.91,1.35,1.64,2.35,3.59,3,5.84s.98,4.66.98,7.22c0,2.79-.38,5.31-1.15,7.56-.77,2.25-1.86,4.18-3.27,5.8s-3.13,2.87-5.13,3.74c-2,.88-4.22,1.32-6.65,1.32ZM1427.65,511.45c0-2.07-.23-4-.67-5.8-.45-1.8-1.15-3.36-2.09-4.69-.94-1.33-2.16-2.37-3.64-3.14s-3.31-1.15-5.46-1.15-3.92.42-5.43,1.25c-1.51.83-2.73,1.93-3.68,3.31-.94,1.37-1.64,2.95-2.09,4.72-.45,1.78-.67,3.61-.67,5.5,0,2.16.26,4.15.78,5.97.52,1.82,1.27,3.38,2.26,4.69.99,1.31,2.23,2.32,3.71,3.04,1.48.72,3.19,1.08,5.13,1.08,2.11,0,3.92-.42,5.43-1.25,1.51-.83,2.73-1.95,3.68-3.34.94-1.39,1.64-2.97,2.09-4.72.45-1.75.67-3.58.67-5.46Z"/>
        <path d="M1441.75,517.99c.63,3.01,1.76,5.14,3.41,6.38,1.64,1.24,3.99,1.86,7.05,1.86,1.48,0,2.77-.18,3.85-.54,1.08-.36,1.97-.84,2.67-1.45.7-.61,1.22-1.29,1.59-2.06.36-.76.54-1.57.54-2.43,0-1.71-.55-2.98-1.65-3.81-1.1-.83-2.49-1.48-4.15-1.96-1.67-.47-3.46-.88-5.4-1.21-1.93-.34-3.73-.84-5.4-1.52s-3.05-1.64-4.15-2.9c-1.1-1.26-1.65-3.04-1.65-5.33,0-2.92,1.07-5.32,3.21-7.18,2.13-1.87,5.16-2.8,9.07-2.8s6.85.84,9.21,2.53,3.79,4.51,4.28,8.47h-4.12c-.36-2.7-1.38-4.6-3.07-5.7-1.69-1.1-3.81-1.65-6.38-1.65s-4.52.55-5.87,1.65c-1.35,1.1-2.02,2.55-2.02,4.35,0,1.58.55,2.78,1.65,3.61,1.1.83,2.48,1.51,4.15,2.02,1.66.52,3.46.98,5.4,1.38,1.93.4,3.73.98,5.4,1.72s3.05,1.74,4.15,3c1.1,1.26,1.65,3.01,1.65,5.26,0,1.67-.36,3.14-1.08,4.42-.72,1.28-1.71,2.35-2.97,3.21-1.26.85-2.76,1.5-4.49,1.92s-3.63.64-5.7.64-3.9-.3-5.5-.91c-1.6-.61-2.96-1.45-4.08-2.53-1.12-1.08-2-2.34-2.63-3.78-.63-1.44-.99-2.99-1.08-4.66h4.12Z"/>
        <path d="M1489.18,508.55c.76-.09,1.68-.22,2.73-.4s1.92-.43,2.6-.74c.67-.31,1.09-.84,1.25-1.59.16-.74.24-1.43.24-2.06,0-2.07-.66-3.77-1.99-5.09-1.33-1.33-3.57-1.99-6.71-1.99-1.39,0-2.68.12-3.85.37-1.17.25-2.19.67-3.07,1.28s-1.6,1.42-2.16,2.43c-.56,1.01-.93,2.28-1.11,3.81h-4.12c.13-2.07.61-3.83,1.42-5.3.81-1.46,1.86-2.65,3.14-3.58,1.28-.92,2.77-1.6,4.45-2.02,1.69-.43,3.47-.64,5.36-.64,1.75,0,3.41.19,4.96.57,1.55.38,2.9.99,4.05,1.82,1.15.83,2.05,1.95,2.7,3.34.65,1.39.98,3.1.98,5.13v19.03c0,1.58.28,2.58.84,3,.56.43,1.7.33,3.41-.3v3.17c-.32.09-.78.22-1.38.4-.61.18-1.2.27-1.79.27-.63,0-1.24-.07-1.82-.2-.67-.09-1.21-.3-1.62-.64-.4-.34-.73-.74-.98-1.21-.25-.47-.42-.99-.51-1.55-.09-.56-.13-1.16-.13-1.79-1.71,1.89-3.67,3.33-5.87,4.32-2.2.99-4.59,1.48-7.15,1.48-1.53,0-3-.2-4.42-.61-1.42-.4-2.67-1.03-3.75-1.89-1.08-.85-1.93-1.9-2.56-3.14s-.94-2.71-.94-4.42c0-5.94,4.07-9.44,12.21-10.52l5.6-.74ZM1495.99,510.57c-1.71.72-3.44,1.19-5.2,1.42-1.75.23-3.51.4-5.26.54-3.1.23-5.52.92-7.25,2.09-1.73,1.17-2.6,2.95-2.6,5.33,0,1.08.21,2.01.64,2.8.43.79.99,1.44,1.69,1.96.7.52,1.51.9,2.43,1.15.92.25,1.86.37,2.8.37,1.62,0,3.19-.2,4.72-.61,1.53-.41,2.89-1.02,4.08-1.86,1.19-.83,2.15-1.89,2.87-3.17.72-1.28,1.08-2.8,1.08-4.55v-5.46Z"/>
        <path d="M1517.58,530.95c0,1.98-.46,3.56-1.38,4.76-.92,1.19-2.1,2.01-3.54,2.46v-2.5c.54-.36,1.06-.86,1.55-1.48.49-.63.74-1.62.74-2.97v-2.29h-2.29v-5.94h4.92v7.96Z"/>
        <path d="M1548.75,528.92v-48.58h4.59v44.66h26.04v3.91h-30.63Z"/>
        <path d="M1588.15,512.39c0,1.89.25,3.68.74,5.36.5,1.69,1.23,3.15,2.19,4.39.97,1.24,2.19,2.23,3.68,2.97s3.19,1.11,5.13,1.11c2.65,0,4.92-.7,6.81-2.09,1.89-1.39,3.15-3.37,3.78-5.94h4.52c-.5,1.67-1.15,3.21-1.96,4.62s-1.82,2.65-3.04,3.71c-1.21,1.06-2.65,1.88-4.32,2.46s-3.6.88-5.8.88c-2.79,0-5.19-.47-7.22-1.42-2.02-.94-3.69-2.24-4.99-3.88-1.31-1.64-2.27-3.58-2.9-5.8-.63-2.23-.94-4.62-.94-7.19s.37-4.97,1.11-7.22c.74-2.25,1.8-4.22,3.17-5.9,1.37-1.69,3.05-3.01,5.03-3.98,1.98-.97,4.23-1.45,6.75-1.45,4.81,0,8.59,1.65,11.33,4.96,2.74,3.31,4.09,8.11,4.05,14.4h-27.12ZM1610.95,509.02c0-1.71-.24-3.32-.71-4.82-.47-1.51-1.17-2.81-2.09-3.91-.92-1.1-2.08-1.98-3.47-2.63-1.39-.65-2.99-.98-4.79-.98s-3.38.34-4.76,1.01c-1.37.67-2.54,1.57-3.51,2.7-.97,1.12-1.74,2.43-2.33,3.91-.58,1.48-.97,3.06-1.15,4.72h22.8Z"/>
        <path d="M1622.89,538.37c.54.09,1.09.18,1.65.27.56.09,1.14.13,1.72.13,1.12,0,2.05-.36,2.77-1.08.72-.72,1.32-1.58,1.79-2.59.47-1.01.87-2.07,1.18-3.17.31-1.1.67-2.03,1.08-2.8l-13.56-35.16h4.52l11.2,30.02,11.2-30.02h4.38l-13.02,34.47c-.81,2.2-1.59,4.18-2.33,5.94s-1.53,3.25-2.36,4.49c-.83,1.24-1.75,2.18-2.77,2.83-1.01.65-2.22.98-3.61.98-.72,0-1.41-.04-2.06-.13-.65-.09-1.25-.2-1.79-.34v-3.85Z"/>
        <path d="M1669.18,529.06c-.5.09-1.15.25-1.96.47-.81.22-1.71.34-2.7.34-2.02,0-3.57-.51-4.62-1.52-1.06-1.01-1.58-2.82-1.58-5.43v-25.57h-4.92v-3.37h4.92v-9.71h4.05v9.71h6.54v3.37h-6.54v23.95c0,.86.02,1.6.07,2.23.04.63.18,1.15.41,1.55.22.41.57.7,1.04.88.47.18,1.14.27,1.99.27.54,0,1.09-.04,1.65-.14.56-.09,1.11-.2,1.65-.34v3.31Z"/>
        <path d="M1678.15,512.39c0,1.89.25,3.68.74,5.36.5,1.69,1.23,3.15,2.19,4.39.97,1.24,2.19,2.23,3.68,2.97s3.19,1.11,5.13,1.11c2.65,0,4.92-.7,6.81-2.09,1.89-1.39,3.15-3.37,3.78-5.94h4.52c-.5,1.67-1.15,3.21-1.96,4.62s-1.82,2.65-3.04,3.71c-1.21,1.06-2.65,1.88-4.32,2.46s-3.6.88-5.8.88c-2.79,0-5.19-.47-7.22-1.42-2.02-.94-3.69-2.24-4.99-3.88-1.31-1.64-2.27-3.58-2.9-5.8-.63-2.23-.94-4.62-.94-7.19s.37-4.97,1.11-7.22c.74-2.25,1.8-4.22,3.17-5.9,1.37-1.69,3.05-3.01,5.03-3.98,1.98-.97,4.23-1.45,6.75-1.45,4.81,0,8.59,1.65,11.33,4.96,2.74,3.31,4.09,8.11,4.05,14.4h-27.12ZM1700.95,509.02c0-1.71-.24-3.32-.71-4.82-.47-1.51-1.17-2.81-2.09-3.91-.92-1.1-2.08-1.98-3.47-2.63-1.39-.65-2.99-.98-4.79-.98s-3.38.34-4.76,1.01c-1.37.67-2.54,1.57-3.51,2.7-.97,1.12-1.74,2.43-2.33,3.91-.58,1.48-.97,3.06-1.15,4.72h22.8Z"/>
        <path d="M1720.11,530.95c0,1.98-.46,3.56-1.38,4.76-.92,1.19-2.1,2.01-3.54,2.46v-2.5c.54-.36,1.06-.86,1.55-1.48.49-.63.74-1.62.74-2.97v-2.29h-2.29v-5.94h4.92v7.96Z"/>
        <path d="M1751.08,528.92v-48.58h17.74c3.15,0,5.75.36,7.79,1.08,2.05.72,3.67,1.71,4.86,2.97,1.19,1.26,2.02,2.71,2.5,4.35.47,1.64.71,3.36.71,5.16,0,2.7-.55,4.92-1.65,6.68-1.1,1.75-2.53,3.14-4.28,4.15-1.75,1.01-3.75,1.72-5.97,2.12-2.23.41-4.46.61-6.71.61h-10.39v21.45h-4.59ZM1766.19,503.55c2.16,0,4.09-.13,5.8-.41,1.71-.27,3.16-.78,4.35-1.52,1.19-.74,2.11-1.75,2.77-3.04.65-1.28.98-2.96.98-5.03,0-3.06-1-5.37-3-6.95-2-1.57-5.18-2.36-9.55-2.36h-11.87v19.29h10.53Z"/>
        <path d="M1791.9,528.92v-48.58h4.05v18.49c1.62-1.71,3.29-3.1,5.03-4.18,1.73-1.08,3.81-1.62,6.24-1.62,2.16,0,4.16.37,6,1.11,1.84.74,3.4,2.04,4.66,3.88.85,1.26,1.36,2.55,1.52,3.88.16,1.33.24,2.71.24,4.15v22.87h-4.05v-22.8c0-3.15-.7-5.51-2.09-7.08-1.39-1.57-3.71-2.36-6.95-2.36-1.26,0-2.41.19-3.44.57-1.04.38-1.97.89-2.8,1.52-.83.63-1.54,1.35-2.12,2.16-.58.81-1.04,1.66-1.35,2.56-.4,1.12-.65,2.2-.74,3.24-.09,1.04-.13,2.16-.13,3.37v18.82h-4.05Z"/>
        <path d="M1829.81,486.35v-6h4.45v6h-4.45ZM1830.01,528.92v-34.95h4.05v34.95h-4.05Z"/>
        <path d="M1844.99,528.92v-48.58h4.05v48.58h-4.05Z"/>
        <path d="M1859.77,486.35v-6h4.45v6h-4.45ZM1859.97,528.92v-34.95h4.05v34.95h-4.05Z"/>
        <path d="M1878.86,542.68h-4.05v-48.71h4.05v6.14h.13c.58-1.12,1.34-2.14,2.26-3.04.92-.9,1.93-1.64,3.04-2.23,1.1-.58,2.24-1.03,3.41-1.35,1.17-.31,2.32-.47,3.44-.47,2.83,0,5.24.47,7.22,1.42,1.98.95,3.61,2.24,4.89,3.88,1.28,1.64,2.21,3.59,2.8,5.84.58,2.25.88,4.66.88,7.22,0,2.43-.31,4.77-.94,7.02s-1.58,4.22-2.87,5.9-2.9,3.04-4.86,4.05c-1.96,1.01-4.26,1.52-6.92,1.52-2.47,0-4.85-.55-7.12-1.65-2.27-1.1-4.06-2.73-5.36-4.89v19.36ZM1878.86,511.58c0,1.98.27,3.86.81,5.63.54,1.78,1.32,3.33,2.33,4.66,1.01,1.33,2.25,2.38,3.71,3.17,1.46.79,3.11,1.18,4.96,1.18,2.07,0,3.88-.42,5.43-1.25s2.82-1.97,3.81-3.41,1.71-3.11,2.16-5.03c.45-1.91.63-3.97.54-6.17,0-2.2-.3-4.15-.91-5.84s-1.45-3.11-2.53-4.28c-1.08-1.17-2.34-2.06-3.78-2.67-1.44-.61-3.01-.91-4.72-.91-1.89,0-3.58.38-5.06,1.15-1.48.76-2.72,1.81-3.71,3.14-.99,1.33-1.74,2.9-2.26,4.72-.52,1.82-.78,3.79-.78,5.9Z"/>
        <path d="M1920.08,542.68h-4.05v-48.71h4.05v6.14h.13c.58-1.12,1.34-2.14,2.26-3.04.92-.9,1.93-1.64,3.04-2.23,1.1-.58,2.24-1.03,3.41-1.35,1.17-.31,2.32-.47,3.44-.47,2.83,0,5.24.47,7.22,1.42,1.98.95,3.61,2.24,4.89,3.88,1.28,1.64,2.21,3.59,2.8,5.84.58,2.25.88,4.66.88,7.22,0,2.43-.31,4.77-.94,7.02s-1.58,4.22-2.87,5.9-2.9,3.04-4.86,4.05c-1.96,1.01-4.26,1.52-6.92,1.52-2.47,0-4.85-.55-7.12-1.65-2.27-1.1-4.06-2.73-5.36-4.89v19.36ZM1920.08,511.58c0,1.98.27,3.86.81,5.63.54,1.78,1.32,3.33,2.33,4.66,1.01,1.33,2.25,2.38,3.71,3.17,1.46.79,3.11,1.18,4.96,1.18,2.07,0,3.88-.42,5.43-1.25s2.82-1.97,3.81-3.41,1.71-3.11,2.16-5.03c.45-1.91.63-3.97.54-6.17,0-2.2-.3-4.15-.91-5.84s-1.45-3.11-2.53-4.28c-1.08-1.17-2.34-2.06-3.78-2.67-1.44-.61-3.01-.91-4.72-.91-1.89,0-3.58.38-5.06,1.15-1.48.76-2.72,1.81-3.71,3.14-.99,1.33-1.74,2.9-2.26,4.72-.52,1.82-.78,3.79-.78,5.9Z"/>
        <path d="M1957.18,486.35v-6h4.45v6h-4.45ZM1957.39,528.92v-34.95h4.05v34.95h-4.05Z"/>
        <path d="M1975.8,528.92h-4.05v-34.95h4.05v4.86c1.62-1.71,3.29-3.1,5.03-4.18,1.73-1.08,3.81-1.62,6.24-1.62,2.16,0,4.16.37,6,1.11,1.84.74,3.4,2.04,4.66,3.88.85,1.26,1.36,2.55,1.52,3.88.16,1.33.24,2.71.24,4.15v22.87h-4.05v-22.8c0-3.15-.7-5.51-2.09-7.08-1.39-1.57-3.71-2.36-6.95-2.36-1.26,0-2.41.19-3.44.57-1.04.38-1.97.89-2.8,1.52-.83.63-1.54,1.35-2.12,2.16-.58.81-1.04,1.66-1.35,2.56-.4,1.12-.65,2.2-.74,3.24-.09,1.04-.13,2.16-.13,3.37v18.82Z"/>
        <path d="M2011.76,512.39c0,1.89.25,3.68.74,5.36.5,1.69,1.23,3.15,2.19,4.39.97,1.24,2.19,2.23,3.68,2.97s3.19,1.11,5.13,1.11c2.65,0,4.92-.7,6.81-2.09,1.89-1.39,3.15-3.37,3.78-5.94h4.52c-.5,1.67-1.15,3.21-1.96,4.62s-1.82,2.65-3.04,3.71c-1.21,1.06-2.65,1.88-4.32,2.46s-3.6.88-5.8.88c-2.79,0-5.19-.47-7.22-1.42-2.02-.94-3.69-2.24-4.99-3.88-1.31-1.64-2.27-3.58-2.9-5.8-.63-2.23-.94-4.62-.94-7.19s.37-4.97,1.11-7.22c.74-2.25,1.8-4.22,3.17-5.9,1.37-1.69,3.05-3.01,5.03-3.98,1.98-.97,4.23-1.45,6.75-1.45,4.81,0,8.59,1.65,11.33,4.96,2.74,3.31,4.09,8.11,4.05,14.4h-27.12ZM2034.57,509.02c0-1.71-.24-3.32-.71-4.82-.47-1.51-1.17-2.81-2.09-3.91-.92-1.1-2.08-1.98-3.47-2.63-1.39-.65-2.99-.98-4.79-.98s-3.38.34-4.76,1.01c-1.37.67-2.54,1.57-3.51,2.7-.97,1.12-1.74,2.43-2.33,3.91-.58,1.48-.97,3.06-1.15,4.72h22.8Z"/>
        <path d="M2049.14,517.99c.63,3.01,1.76,5.14,3.41,6.38,1.64,1.24,3.99,1.86,7.05,1.86,1.48,0,2.77-.18,3.85-.54,1.08-.36,1.97-.84,2.67-1.45.7-.61,1.22-1.29,1.59-2.06.36-.76.54-1.57.54-2.43,0-1.71-.55-2.98-1.65-3.81-1.1-.83-2.49-1.48-4.15-1.96-1.67-.47-3.46-.88-5.4-1.21-1.93-.34-3.73-.84-5.4-1.52s-3.05-1.64-4.15-2.9c-1.1-1.26-1.65-3.04-1.65-5.33,0-2.92,1.07-5.32,3.21-7.18,2.13-1.87,5.16-2.8,9.07-2.8s6.85.84,9.21,2.53,3.79,4.51,4.28,8.47h-4.12c-.36-2.7-1.38-4.6-3.07-5.7-1.69-1.1-3.81-1.65-6.38-1.65s-4.52.55-5.87,1.65c-1.35,1.1-2.02,2.55-2.02,4.35,0,1.58.55,2.78,1.65,3.61,1.1.83,2.48,1.51,4.15,2.02,1.66.52,3.46.98,5.4,1.38,1.93.4,3.73.98,5.4,1.72s3.05,1.74,4.15,3c1.1,1.26,1.65,3.01,1.65,5.26,0,1.67-.36,3.14-1.08,4.42-.72,1.28-1.71,2.35-2.97,3.21-1.26.85-2.76,1.5-4.49,1.92s-3.63.64-5.7.64-3.9-.3-5.5-.91c-1.6-.61-2.96-1.45-4.08-2.53-1.12-1.08-2-2.34-2.63-3.78-.63-1.44-.99-2.99-1.08-4.66h4.12Z"/>
      </g>
    </g>
    <g id="Tail">
      <g>
        <path class="st0" d="M759.7,381.78h46.85v7.91h-38.32v19.6h35.42v7.47h-35.42v21.89h38.98v7.69h-47.51v-64.56Z"/>
        <path class="st0" d="M817.55,381.78h10.3l32.2,52.16v-52.16h8.35v64.56h-9.83l-32.67-52.1v52.1h-8.35v-64.56Z"/>
        <path class="st0" d="M924.18,383.62c6.32,3.37,10.19,9.27,11.61,17.71h-8.66c-1.03-4.72-3.17-8.15-6.41-10.31-3.24-2.15-7.33-3.23-12.27-3.23-5.85,0-10.78,2.24-14.78,6.72-4,4.48-6,11.16-6,20.04,0,7.68,1.65,13.93,4.95,18.75,3.3,4.82,8.69,7.23,16.15,7.23,5.71,0,10.44-1.69,14.19-5.08,3.75-3.38,5.67-8.86,5.75-16.42h-20.22v-7.25h28.35v34.54h-5.63l-2.11-8.31c-2.91,3.25-5.49,5.51-7.74,6.77-3.78,2.17-8.58,3.25-14.4,3.25-7.52,0-13.99-2.48-19.41-7.43-5.91-6.21-8.86-14.74-8.86-25.58s2.89-19.41,8.66-25.8c5.49-6.09,12.59-9.14,21.31-9.14,5.98,0,11.15,1.17,15.51,3.52Z"/>
        <path class="st0" d="M951.84,381.78h8.83v64.56h-8.83v-64.56Z"/>
        <path class="st0" d="M973.52,381.78h10.3l32.2,52.16v-52.16h8.35v64.56h-9.83l-32.67-52.1v52.1h-8.35v-64.56Z"/>
        <path class="st0" d="M1038.01,381.78h46.85v7.91h-38.32v19.6h35.42v7.47h-35.42v21.89h38.98v7.69h-47.51v-64.56Z"/>
        <path class="st0" d="M1096.69,381.78h46.85v7.91h-38.32v19.6h35.42v7.47h-35.42v21.89h38.98v7.69h-47.51v-64.56Z"/>
        <path class="st0" d="M1155.6,381.78h29.35c4.83,0,8.82.72,11.96,2.15,5.96,2.75,8.93,7.84,8.93,15.25,0,3.87-.8,7.03-2.4,9.49-1.6,2.46-3.83,4.44-6.7,5.93,2.52,1.03,4.42,2.37,5.69,4.04s1.98,4.38,2.13,8.13l.31,8.66c.09,2.46.29,4.29.62,5.49.53,2.05,1.46,3.37,2.81,3.96v1.45h-10.72c-.29-.56-.53-1.27-.7-2.15s-.32-2.58-.44-5.1l-.53-10.77c-.2-4.22-1.72-7.05-4.57-8.48-1.62-.79-4.17-1.19-7.64-1.19h-19.34v27.69h-8.75v-64.56ZM1184.01,411.35c3.99,0,7.14-.82,9.47-2.46s3.48-4.6,3.48-8.88c0-4.6-1.62-7.74-4.87-9.41-1.74-.88-4.06-1.32-6.97-1.32h-20.77v22.06h19.66Z"/>
        <path class="st0" d="M1220.17,381.78h8.83v64.56h-8.83v-64.56Z"/>
        <path class="st0" d="M1241.85,381.78h10.3l32.2,52.16v-52.16h8.35v64.56h-9.83l-32.67-52.1v52.1h-8.35v-64.56Z"/>
        <path class="st0" d="M1348.48,383.62c6.32,3.37,10.19,9.27,11.61,17.71h-8.66c-1.03-4.72-3.17-8.15-6.41-10.31-3.24-2.15-7.33-3.23-12.27-3.23-5.85,0-10.78,2.24-14.78,6.72-4,4.48-6,11.16-6,20.04,0,7.68,1.65,13.93,4.95,18.75,3.3,4.82,8.69,7.23,16.15,7.23,5.71,0,10.44-1.69,14.19-5.08,3.75-3.38,5.67-8.86,5.75-16.42h-20.22v-7.25h28.35v34.54h-5.63l-2.11-8.31c-2.91,3.25-5.49,5.51-7.74,6.77-3.78,2.17-8.58,3.25-14.4,3.25-7.52,0-13.99-2.48-19.41-7.43-5.91-6.21-8.86-14.74-8.86-25.58s2.89-19.41,8.66-25.8c5.49-6.09,12.59-9.14,21.31-9.14,5.98,0,11.15,1.17,15.51,3.52Z"/>
        <path class="st0" d="M1398.22,381.78h25.81c8.76,0,15.56,3.15,20.38,9.45,4.31,5.68,6.46,12.96,6.46,21.84,0,6.86-1.27,13.05-3.82,18.59-4.48,9.79-12.19,14.68-23.12,14.68h-25.72v-64.56ZM1422.31,438.87c2.89,0,5.27-.31,7.13-.92,3.32-1.14,6.04-3.34,8.17-6.59,1.69-2.61,2.91-5.95,3.65-10.02.43-2.43.65-4.69.65-6.77,0-8-1.55-14.21-4.66-18.63-3.11-4.42-8.12-6.64-15.02-6.64h-15.17v49.58h15.26Z"/>
        <path class="st0" d="M1462.31,381.78h46.85v7.91h-38.32v19.6h35.42v7.47h-35.42v21.89h38.98v7.69h-47.51v-64.56Z"/>
        <path class="st0" d="M1525.88,425.51c.2,3.66,1.03,6.64,2.5,8.92,2.79,4.28,7.72,6.42,14.78,6.42,3.16,0,6.04-.47,8.64-1.41,5.02-1.82,7.54-5.07,7.54-9.76,0-3.52-1.06-6.02-3.19-7.52-2.16-1.46-5.54-2.74-10.13-3.82l-8.47-1.98c-5.54-1.29-9.45-2.71-11.75-4.26-3.97-2.7-5.96-6.72-5.96-12.09,0-5.8,1.95-10.56,5.86-14.28,3.91-3.72,9.44-5.58,16.59-5.58,6.59,0,12.18,1.63,16.79,4.9,4.6,3.27,6.91,8.49,6.91,15.67h-8.22c-.42-3.46-1.32-6.11-2.7-7.96-2.56-3.37-6.9-5.05-13.02-5.05-4.94,0-8.5,1.08-10.66,3.25s-3.24,4.69-3.24,7.56c0,3.16,1.28,5.48,3.83,6.94,1.67.94,5.46,2.11,11.37,3.52l8.77,2.07c4.23,1,7.5,2.36,9.79,4.09,3.97,3.02,5.96,7.4,5.96,13.14,0,7.15-2.54,12.26-7.61,15.34-5.07,3.08-10.96,4.61-17.68,4.61-7.83,0-13.96-2.05-18.39-6.15-4.43-4.07-6.6-9.6-6.52-16.57h8.22Z"/>
        <path class="st0" d="M1580.83,381.78h8.83v64.56h-8.83v-64.56Z"/>
        <path class="st0" d="M1645.48,383.62c6.32,3.37,10.19,9.27,11.61,17.71h-8.66c-1.03-4.72-3.17-8.15-6.41-10.31-3.24-2.15-7.33-3.23-12.27-3.23-5.85,0-10.78,2.24-14.78,6.72-4,4.48-6,11.16-6,20.04,0,7.68,1.65,13.93,4.95,18.75,3.3,4.82,8.69,7.23,16.15,7.23,5.71,0,10.44-1.69,14.19-5.08,3.75-3.38,5.67-8.86,5.75-16.42h-20.22v-7.25h28.35v34.54h-5.63l-2.11-8.31c-2.91,3.25-5.49,5.51-7.74,6.77-3.78,2.17-8.58,3.25-14.4,3.25-7.52,0-13.99-2.48-19.41-7.43-5.91-6.21-8.86-14.74-8.86-25.58s2.89-19.41,8.66-25.8c5.49-6.09,12.59-9.14,21.31-9.14,5.98,0,11.15,1.17,15.51,3.52Z"/>
        <path class="st0" d="M1671.17,381.78h10.3l32.2,52.16v-52.16h8.35v64.56h-9.83l-32.67-52.1v52.1h-8.35v-64.56Z"/>
        <path class="st0" d="M1764.19,425.51c.2,3.66,1.03,6.64,2.5,8.92,2.79,4.28,7.72,6.42,14.78,6.42,3.16,0,6.04-.47,8.64-1.41,5.02-1.82,7.54-5.07,7.54-9.76,0-3.52-1.06-6.02-3.19-7.52-2.16-1.46-5.54-2.74-10.13-3.82l-8.47-1.98c-5.54-1.29-9.45-2.71-11.75-4.26-3.97-2.7-5.96-6.72-5.96-12.09,0-5.8,1.95-10.56,5.86-14.28,3.91-3.72,9.44-5.58,16.59-5.58,6.59,0,12.18,1.63,16.79,4.9,4.6,3.27,6.91,8.49,6.91,15.67h-8.22c-.42-3.46-1.32-6.11-2.7-7.96-2.56-3.37-6.9-5.05-13.02-5.05-4.94,0-8.5,1.08-10.66,3.25s-3.24,4.69-3.24,7.56c0,3.16,1.28,5.48,3.83,6.94,1.67.94,5.46,2.11,11.37,3.52l8.77,2.07c4.23,1,7.5,2.36,9.79,4.09,3.97,3.02,5.96,7.4,5.96,13.14,0,7.15-2.54,12.26-7.61,15.34-5.07,3.08-10.96,4.61-17.68,4.61-7.83,0-13.96-2.05-18.39-6.15-4.43-4.07-6.6-9.6-6.52-16.57h8.22Z"/>
        <path class="st0" d="M1818,381.78h46.85v7.91h-38.32v19.6h35.42v7.47h-35.42v21.89h38.98v7.69h-47.51v-64.56Z"/>
        <path class="st0" d="M1876.91,381.78h29.35c4.83,0,8.82.72,11.96,2.15,5.96,2.75,8.93,7.84,8.93,15.25,0,3.87-.8,7.03-2.4,9.49-1.6,2.46-3.83,4.44-6.7,5.93,2.52,1.03,4.42,2.37,5.69,4.04s1.98,4.38,2.13,8.13l.31,8.66c.09,2.46.29,4.29.62,5.49.53,2.05,1.46,3.37,2.81,3.96v1.45h-10.72c-.29-.56-.53-1.27-.7-2.15s-.32-2.58-.44-5.1l-.53-10.77c-.2-4.22-1.72-7.05-4.57-8.48-1.62-.79-4.17-1.19-7.64-1.19h-19.34v27.69h-8.75v-64.56ZM1905.31,411.35c3.99,0,7.14-.82,9.47-2.46s3.48-4.6,3.48-8.88c0-4.6-1.62-7.74-4.87-9.41-1.74-.88-4.06-1.32-6.97-1.32h-20.77v22.06h19.66Z"/>
        <path class="st0" d="M1943.04,381.78l18.55,54.98,18.33-54.98h9.8l-23.56,64.56h-9.27l-23.51-64.56h9.67Z"/>
        <path class="st0" d="M1998.58,381.78h8.83v64.56h-8.83v-64.56Z"/>
        <path class="st0" d="M2065.93,386.48c4.46,4.31,6.94,9.2,7.43,14.68h-8.53c-.95-4.16-2.84-7.46-5.68-9.89-2.83-2.43-6.81-3.65-11.93-3.65-6.24,0-11.29,2.24-15.13,6.71-3.84,4.47-5.76,11.33-5.76,20.56,0,7.57,1.73,13.7,5.2,18.41,3.47,4.71,8.64,7.06,15.52,7.06,6.33,0,11.15-2.48,14.46-7.43,1.75-2.61,3.06-6.04,3.93-10.28h8.53c-.75,6.8-3.24,12.5-7.47,17.1-5.07,5.54-11.9,8.31-20.51,8.31-7.42,0-13.64-2.27-18.68-6.82-6.63-6.01-9.95-15.29-9.95-27.84,0-9.53,2.49-17.34,7.47-23.44,5.39-6.63,12.81-9.94,22.28-9.94,8.08,0,14.35,2.15,18.81,6.46Z"/>
        <path class="st0" d="M2084.75,381.78h46.85v7.91h-38.32v19.6h35.42v7.47h-35.42v21.89h38.98v7.69h-47.51v-64.56Z"/>
        <path class="st0" d="M2148.31,425.51c.2,3.66,1.03,6.64,2.5,8.92,2.79,4.28,7.72,6.42,14.78,6.42,3.16,0,6.04-.47,8.64-1.41,5.02-1.82,7.54-5.07,7.54-9.76,0-3.52-1.06-6.02-3.19-7.52-2.16-1.46-5.54-2.74-10.13-3.82l-8.47-1.98c-5.54-1.29-9.45-2.71-11.75-4.26-3.97-2.7-5.96-6.72-5.96-12.09,0-5.8,1.95-10.56,5.86-14.28,3.91-3.72,9.44-5.58,16.59-5.58,6.59,0,12.18,1.63,16.79,4.9,4.6,3.27,6.91,8.49,6.91,15.67h-8.22c-.42-3.46-1.32-6.11-2.7-7.96-2.56-3.37-6.9-5.05-13.02-5.05-4.94,0-8.5,1.08-10.66,3.25s-3.24,4.69-3.24,7.56c0,3.16,1.28,5.48,3.83,6.94,1.67.94,5.46,2.11,11.37,3.52l8.77,2.07c4.23,1,7.5,2.36,9.79,4.09,3.97,3.02,5.96,7.4,5.96,13.14,0,7.15-2.54,12.26-7.61,15.34-5.07,3.08-10.96,4.61-17.68,4.61-7.83,0-13.96-2.05-18.39-6.15-4.43-4.07-6.6-9.6-6.52-16.57h8.22Z"/>
      </g>
    </g>
    <g id="Title">
      <path d="M803.35,327.6v-95.84h-48v-24.17h120.01v24.17h-47.84v95.84h-24.17Z"/>
      <path d="M928.02,327.6l-43.67-120.01h25.5l27.5,75.17,27.5-75.17h22.67l27.67,75.17,27.5-75.17h25.5l-43.67,120.01h-18.67l-29.67-81.01-29.5,81.01h-18.67Z"/>
      <path d="M1081.03,327.6v-120.01h23.83v120.01h-23.83Z"/>
      <path d="M1120.03,327.6v-120.01h25.5l70.17,83.67v-83.67h24.34v120.01h-25.5l-70.51-84.01v84.01h-24Z"/>
      <path d="M1311.71,207.59h91.34c4.33,0,8.31,1.08,11.92,3.25,3.61,2.17,6.53,5.08,8.75,8.75,2.22,3.67,3.33,7.67,3.33,12v23c0,1.45-.11,2.81-.33,4.08-.22,1.28-.56,2.53-1,3.75,1.78,2.33,3.22,4.86,4.33,7.58,1.11,2.72,1.67,5.47,1.67,8.25v25.34c0,4.33-1.11,8.33-3.33,12-2.22,3.67-5.17,6.58-8.83,8.75s-7.67,3.25-12,3.25h-95.84v-120.01ZM1336.72,254.43h65.01c.33,0,.58-.08.75-.25.17-.17.25-.36.25-.58v-20.83c0-.22-.08-.44-.25-.67-.17-.22-.42-.33-.75-.33h-65.01c-.22,0-.45.11-.67.33s-.33.45-.33.67v20.83c0,.22.11.42.33.58.22.17.44.25.67.25ZM1336.72,303.43h69.67c.22,0,.44-.11.67-.33.22-.22.33-.44.33-.67v-22.84c0-.22-.11-.44-.33-.67-.22-.22-.45-.33-.67-.33h-69.67c-.22,0-.45.11-.67.33s-.33.45-.33.67v22.84c0,.22.11.45.33.67.22.22.44.33.67.33Z"/>
      <path d="M1461.56,324.35c-3.67-2.17-6.58-5.08-8.75-8.75s-3.25-7.67-3.25-12v-96.01h24v94.84c0,.22.11.45.33.67.22.22.44.33.67.33h69.67c.22,0,.44-.11.67-.33s.33-.44.33-.67v-94.84h24.33v96.01c0,4.33-1.11,8.33-3.33,12-2.22,3.67-5.14,6.58-8.75,8.75-3.61,2.17-7.58,3.25-11.92,3.25h-72.01c-4.33,0-8.33-1.08-12-3.25Z"/>
      <path d="M1584.57,327.6v-120.01h23.83v120.01h-23.83Z"/>
      <path d="M1623.74,327.6v-120.18h24v96.01h96.01v24.17h-120.01Z"/>
      <path d="M1753.75,327.6v-120.01h95.84c4.33,0,8.33,1.08,12,3.25s6.61,5.08,8.83,8.75c2.22,3.67,3.33,7.67,3.33,12v72.01c0,4.33-1.11,8.33-3.33,12-2.22,3.67-5.17,6.58-8.83,8.75s-7.67,3.25-12,3.25h-95.84ZM1778.58,303.43h69.84c.22,0,.44-.11.67-.33s.33-.44.33-.67v-69.67c0-.22-.11-.44-.33-.67-.22-.22-.45-.33-.67-.33h-69.84c-.22,0-.45.11-.67.33-.22.22-.33.45-.33.67v69.67c0,.22.11.45.33.67.22.22.44.33.67.33Z"/>
      <path d="M1889.09,327.6v-120.01h23.83v120.01h-23.83Z"/>
      <path d="M1928.1,327.6v-120.01h25.5l70.17,83.67v-83.67h24.34v120.01h-25.5l-70.51-84.01v84.01h-24Z"/>
      <path d="M2090.77,327.6c-4.33,0-8.33-1.08-12-3.25s-6.58-5.08-8.75-8.75c-2.17-3.67-3.25-7.67-3.25-12v-72.01c0-4.33,1.08-8.33,3.25-12,2.17-3.67,5.08-6.58,8.75-8.75s7.67-3.25,12-3.25h71.84c4.33,0,8.33,1.08,12,3.25s6.61,5.08,8.83,8.75c2.22,3.67,3.33,7.67,3.33,12v10.33h-24.34v-9.17c0-.22-.11-.44-.33-.67-.22-.22-.45-.33-.67-.33h-69.67c-.22,0-.45.11-.67.33-.22.22-.33.45-.33.67v69.67c0,.22.11.45.33.67.22.22.44.33.67.33h69.67c.22,0,.44-.11.67-.33.22-.22.33-.44.33-.67v-19.67h-26.5v-24.17h50.84v45c0,4.33-1.11,8.33-3.33,12-2.22,3.67-5.17,6.58-8.83,8.75s-7.67,3.25-12,3.25h-71.84Z"/>
    </g>
  </g>
  <g id="Logo">
    <g id="Buildings">
      <g id="Building:_Right">
        <polygon class="st2" points="474.19 70.35 474.19 666.77 396.24 656.71 396.24 118.92 474.19 70.35"/>
        <g id="Side">
          <polygon class="st3" points="605.79 143.63 605.79 656.71 474.19 666.78 474.19 70.35 605.79 143.63"/>
        </g>
        <g id="Side1" data-name="Side">
          <polygon class="st3" points="688.91 267.44 688.91 650.49 607.58 656.71 607.58 211.61 688.91 267.44"/>
        </g>
      </g>
      <g id="Building:_Left">
        <polygon class="st2" points="380.97 231.76 380.97 656.71 303.02 666.76 303.02 193.19 380.97 231.76"/>
        <g id="Side2" data-name="Side">
          <polygon class="st3" points="303.03 193.19 303.03 666.78 171.42 656.68 171.42 251.38 303.03 193.19"/>
        </g>
        <g id="Side3" data-name="Side">
          <polygon class="st3" points="169.64 325.1 169.64 656.68 88.91 650.83 88.91 367.01 169.64 325.1"/>
        </g>
      </g>
    </g>
    <g id="Crane">
      <g id="Load">
        <path d="M525.59,295.5h7.74c8.83,0,16,7.17,16,16v55.11c0,8.83-7.17,16-16,16h-7.74v-87.11h0Z"/>
        <path d="M355.43,295.5h8.18c4.3,0,7.78,3.49,7.78,7.78v219.81c0,6.95-5.64,12.59-12.59,12.59h-3.37c-4.3,0-7.78-3.49-7.78-7.78v-224.62c0-4.3,3.49-7.78,7.78-7.78Z"/>
        <path d="M436.61,206.52h7.74c8.83,0,16,7.17,16,16v169.69c0,8.83-7.17,16-16,16h-7.74v-201.69h0Z" transform="translate(141.12 755.85) rotate(-90)"/>
        <path d="M436.61,269.9h23.74v201.69h-7.74c-8.83,0-16-7.17-16-16v-185.69h0Z" transform="translate(77.75 819.22) rotate(-90)"/>
        <path d="M554.12,418.64h15.96c4.3,0,7.78,3.49,7.78,7.78v96.51c0,6.95-5.64,12.59-12.59,12.59h-3.37c-4.3,0-7.78-3.49-7.78-7.78v-109.1h0Z"/>
        <path d="M450.88,315.4h23.74v214.22c0,8.83-7.17,16-16,16h-7.74v-230.22h0Z" transform="translate(32.24 893.26) rotate(-90)"/>
        <rect x="450.88" y="378.77" width="23.74" height="230.22" transform="translate(-31.13 956.63) rotate(-90)"/>
      </g>
      <g id="Crane1" data-name="Crane">
        <g id="Leg">
          <path id="Arm" class="st1" d="M278.78,225.97h11.15c6.95,0,12.59,5.64,12.59,12.59v411.25c0,6.95-5.64,12.59-12.59,12.59h-3.37c-4.3,0-7.78-3.49-7.78-7.78V225.97h0Z"/>
          <g id="Criscross">
            <g>
              <path d="M303.97,268.08c-.19,0-.38-.08-.55-.22l-26.64-23.46c-.24-.21-.41-.54-.47-.94-.07-.39-.02-.8.13-1.14.19-.45.53-.72.9-.72.19,0,.38.08.55.22l26.64,23.46c.24.21.41.54.47.93.07.39.02.8-.13,1.14-.19.45-.53.72-.9.72Z"/>
              <path d="M277.33,268.08c-.37,0-.7-.27-.9-.72-.15-.34-.19-.75-.13-1.14.07-.39.23-.72.47-.94l26.64-23.46c.17-.15.35-.22.55-.22.37,0,.7.27.9.72.15.34.19.75.13,1.14-.07.39-.23.72-.47.94l-26.64,23.46c-.16.15-.35.22-.55.22Z"/>
            </g>
            <g>
              <path d="M303.97,291.54c-.19,0-.38-.08-.55-.22l-26.64-23.46c-.24-.21-.41-.54-.47-.94-.07-.39-.02-.8.13-1.14.19-.45.53-.72.9-.72.19,0,.38.08.55.22l26.64,23.46c.24.21.41.54.47.93.07.39.02.8-.13,1.14-.19.45-.53.72-.9.72Z"/>
              <path d="M277.33,291.54c-.37,0-.7-.27-.9-.72-.15-.34-.19-.75-.13-1.14.07-.39.23-.73.47-.94l26.64-23.46c.16-.15.35-.22.55-.22.37,0,.7.27.9.72.15.34.19.75.13,1.14-.07.39-.23.72-.47.94l-26.64,23.46c-.16.15-.35.22-.55.22Z"/>
            </g>
            <g>
              <path d="M303.97,315c-.19,0-.38-.08-.55-.22l-26.64-23.46c-.24-.21-.41-.54-.47-.93-.07-.39-.02-.8.13-1.14.19-.45.53-.72.9-.72.19,0,.38.08.55.22l26.64,23.46c.24.21.41.54.47.93.07.39.02.8-.13,1.14-.19.45-.53.72-.9.72Z"/>
              <path d="M277.33,315c-.37,0-.7-.27-.9-.72-.15-.34-.19-.75-.13-1.14.07-.39.23-.72.47-.94l26.64-23.46c.16-.15.35-.22.55-.22.37,0,.7.27.9.72.15.35.19.75.13,1.14-.07.39-.23.72-.47.93l-26.64,23.46c-.16.15-.35.22-.55.22Z"/>
            </g>
            <g>
              <path d="M303.97,338.45c-.19,0-.38-.08-.55-.22l-26.64-23.46c-.24-.21-.41-.54-.47-.94-.07-.39-.02-.8.13-1.14.19-.45.53-.72.9-.72.19,0,.38.08.55.22l26.64,23.46c.24.21.41.54.47.93.07.39.02.8-.13,1.14-.19.45-.53.72-.9.72Z"/>
              <path d="M277.33,338.45c-.37,0-.7-.27-.9-.72-.15-.34-.19-.75-.13-1.14.07-.39.23-.73.47-.94l26.64-23.46c.16-.15.35-.22.55-.22.37,0,.7.27.9.72.15.34.19.75.13,1.14-.07.39-.23.73-.47.94l-26.64,23.46c-.16.15-.35.22-.55.22Z"/>
            </g>
            <g>
              <path d="M303.97,361.91c-.19,0-.38-.08-.55-.22l-26.65-23.46c-.24-.21-.41-.54-.47-.94-.07-.39-.02-.8.13-1.14.19-.45.53-.72.9-.72.19,0,.38.08.55.22l26.64,23.46c.24.21.41.54.47.93.07.39.02.8-.13,1.14-.19.45-.53.72-.9.72Z"/>
              <path d="M277.33,361.91c-.37,0-.7-.27-.9-.72-.15-.34-.19-.75-.13-1.14.07-.39.23-.73.47-.94l26.64-23.46c.16-.15.35-.22.55-.22.37,0,.7.27.9.72.15.34.19.75.13,1.14-.07.39-.23.73-.47.94l-26.64,23.46c-.17.15-.36.22-.55.22Z"/>
            </g>
            <g>
              <path d="M303.97,385.37c-.19,0-.38-.08-.55-.22l-26.65-23.46c-.24-.21-.41-.54-.47-.94-.07-.39-.02-.8.13-1.14.19-.45.53-.72.9-.72.19,0,.38.08.55.22l26.64,23.46c.24.21.41.54.47.94.07.39.02.8-.13,1.14-.19.45-.53.72-.9.72Z"/>
              <path d="M277.33,385.37c-.37,0-.7-.27-.9-.72-.15-.34-.19-.75-.13-1.14s.23-.73.47-.94l26.64-23.46c.17-.15.35-.22.55-.22.37,0,.7.27.9.72.3.71.15,1.64-.35,2.08l-26.64,23.46c-.17.15-.36.22-.55.22Z"/>
            </g>
            <g>
              <path d="M303.97,408.82c-.19,0-.38-.08-.55-.22l-26.64-23.46c-.24-.21-.41-.54-.47-.94s-.02-.8.13-1.14c.19-.45.53-.72.9-.72.19,0,.38.08.55.22l26.64,23.46c.24.21.41.54.47.93.07.39.02.8-.13,1.14-.19.45-.53.72-.9.72Z"/>
              <path d="M277.33,408.82c-.37,0-.7-.27-.9-.72-.15-.34-.19-.75-.13-1.14.07-.39.23-.73.47-.94l26.64-23.46c.17-.15.36-.22.55-.22.37,0,.7.27.9.72.15.34.19.75.13,1.14-.07.39-.23.73-.47.94l-26.64,23.46c-.16.15-.35.22-.55.22Z"/>
            </g>
            <g>
              <path d="M303.97,432.28c-.19,0-.38-.08-.55-.22l-26.64-23.46c-.24-.21-.41-.54-.47-.94-.07-.39-.02-.8.13-1.14.19-.45.53-.72.9-.72.19,0,.38.08.55.22l26.64,23.46c.24.21.41.54.47.93.07.39.02.8-.13,1.14-.19.45-.53.72-.9.72Z"/>
              <path d="M277.33,432.28c-.37,0-.7-.27-.9-.72-.15-.34-.19-.75-.13-1.14.07-.39.23-.73.47-.94l26.64-23.46c.17-.15.36-.22.55-.22.37,0,.7.27.9.72.15.34.19.75.13,1.14-.07.39-.23.72-.47.94l-26.64,23.46c-.16.15-.35.22-.55.22Z"/>
            </g>
            <g>
              <path d="M303.97,455.74c-.19,0-.38-.08-.55-.22l-26.65-23.46c-.24-.21-.41-.54-.47-.94-.07-.39-.02-.8.13-1.14.19-.45.53-.72.9-.72.19,0,.38.08.55.22l26.64,23.46c.49.44.65,1.37.35,2.08-.19.45-.53.72-.9.72Z"/>
              <path d="M277.33,455.74c-.37,0-.7-.27-.9-.72-.15-.34-.19-.75-.13-1.14s.23-.73.47-.94l26.64-23.46c.17-.15.35-.22.55-.22.37,0,.7.27.9.72.15.34.19.75.13,1.14-.07.39-.23.72-.47.94l-26.64,23.46c-.17.15-.36.22-.55.22Z"/>
            </g>
            <g>
              <path d="M303.97,479.19c-.19,0-.38-.08-.55-.22l-26.65-23.46c-.24-.21-.41-.54-.47-.94-.07-.39-.02-.8.13-1.14.19-.45.53-.72.9-.72.19,0,.38.08.55.22l26.64,23.46c.24.21.41.54.47.93.07.39.02.8-.13,1.14-.19.45-.53.72-.9.72Z"/>
              <path d="M277.33,479.19c-.37,0-.7-.27-.9-.72-.15-.35-.19-.75-.13-1.15.07-.39.23-.72.47-.93l26.64-23.46c.17-.15.35-.22.55-.22.37,0,.7.27.9.72.15.34.19.75.13,1.14-.07.39-.23.72-.47.94l-26.64,23.46c-.17.15-.36.22-.55.22Z"/>
            </g>
            <g>
              <path d="M303.97,502.65c-.19,0-.38-.08-.55-.22l-26.65-23.46c-.24-.21-.41-.54-.47-.94-.07-.39-.02-.8.13-1.14.19-.45.53-.72.89-.72.19,0,.38.08.55.22l26.64,23.46c.24.21.41.54.47.94s.02.8-.13,1.14c-.19.45-.53.72-.9.72Z"/>
              <path d="M277.33,502.65c-.37,0-.7-.27-.9-.72-.15-.34-.19-.75-.13-1.14.07-.39.23-.73.47-.94l26.64-23.46c.17-.15.36-.22.55-.22.37,0,.7.27.9.72.15.34.19.75.13,1.14-.07.39-.23.72-.47.93l-26.64,23.46c-.17.15-.36.22-.55.22Z"/>
            </g>
            <g>
              <path d="M303.97,526.11c-.19,0-.38-.08-.55-.22l-26.65-23.46c-.24-.21-.41-.54-.47-.94-.07-.39-.02-.8.13-1.14.19-.45.53-.72.9-.72.19,0,.38.08.55.22l26.65,23.46c.24.21.41.54.47.93.07.39.02.8-.13,1.14-.19.45-.53.72-.9.72Z"/>
              <path d="M277.33,526.11c-.37,0-.7-.27-.9-.72-.15-.34-.19-.75-.13-1.14.07-.39.23-.72.47-.93l26.64-23.46c.17-.15.36-.22.55-.22.37,0,.7.27.9.72.15.34.19.75.13,1.14-.07.39-.23.72-.47.93l-26.64,23.46c-.17.15-.36.22-.55.22Z"/>
            </g>
            <g>
              <path d="M303.97,549.56c-.19,0-.38-.08-.55-.22l-26.65-23.46c-.24-.21-.41-.54-.47-.94-.07-.39-.02-.8.13-1.14.19-.45.53-.72.9-.72.19,0,.38.08.55.22l26.64,23.46c.24.21.41.54.47.93.07.39.02.8-.13,1.14-.19.45-.53.72-.9.72Z"/>
              <path d="M277.33,549.56c-.37,0-.7-.27-.9-.72-.15-.35-.19-.75-.13-1.15.07-.39.23-.72.47-.93l26.64-23.46c.17-.15.36-.22.55-.22.37,0,.7.27.9.72.15.34.19.75.13,1.14s-.23.73-.47.94l-26.64,23.46c-.17.15-.36.22-.55.22Z"/>
            </g>
            <g>
              <path d="M303.97,572.9c-.19,0-.38-.08-.55-.22l-26.65-23.46c-.24-.21-.41-.54-.47-.94-.07-.39-.02-.8.13-1.14.19-.45.53-.72.9-.72.19,0,.38.08.55.22l26.65,23.46c.24.21.41.54.47.93.07.39.02.8-.13,1.14-.19.45-.53.72-.9.72Z"/>
              <path d="M277.33,572.9c-.37,0-.7-.27-.9-.72-.15-.35-.19-.75-.13-1.15.07-.39.23-.72.47-.93l26.64-23.46c.17-.15.36-.22.55-.22.37,0,.7.27.9.72.3.71.15,1.64-.35,2.08l-26.64,23.46c-.17.15-.36.22-.55.22Z"/>
            </g>
            <g>
              <path d="M303.97,595.31c-.19,0-.38-.08-.55-.22l-26.65-23.46c-.24-.21-.41-.54-.47-.93-.07-.39-.02-.8.13-1.14.19-.45.53-.72.9-.72.19,0,.38.08.55.22l26.64,23.46c.24.21.41.54.47.93.07.39.02.8-.13,1.14-.19.45-.53.72-.9.72Z"/>
              <path d="M277.33,595.31c-.37,0-.7-.27-.9-.72-.15-.34-.19-.75-.13-1.14.07-.39.23-.72.47-.93l26.64-23.46c.17-.15.36-.22.55-.22.37,0,.7.27.9.72.3.71.15,1.64-.35,2.08l-26.64,23.46c-.17.15-.36.22-.55.22Z"/>
            </g>
            <g>
              <path d="M303.97,618.65c-.19,0-.38-.08-.55-.22l-26.65-23.46c-.24-.21-.41-.54-.47-.94-.07-.39-.02-.8.13-1.14.19-.45.53-.72.9-.72.19,0,.38.08.55.22l26.65,23.46c.49.44.65,1.37.35,2.08-.19.45-.53.72-.9.72Z"/>
              <path d="M277.33,618.65c-.37,0-.7-.27-.9-.72-.15-.34-.19-.75-.13-1.14.07-.39.23-.72.47-.93l26.64-23.46c.17-.15.36-.22.55-.22.37,0,.7.27.9.72.15.34.19.75.13,1.14-.07.39-.23.72-.47.93l-26.64,23.46c-.17.15-.36.22-.55.22Z"/>
            </g>
            <g>
              <path d="M303.97,641.07c-.19,0-.38-.08-.55-.22l-26.65-23.46c-.24-.21-.41-.54-.47-.93-.07-.39-.02-.8.13-1.15.19-.45.53-.72.9-.72.19,0,.38.08.55.22l26.64,23.46c.24.21.41.54.47.94s.02.8-.13,1.14c-.19.45-.53.72-.9.72Z"/>
              <path d="M277.33,641.07c-.37,0-.7-.27-.9-.72-.15-.34-.19-.75-.13-1.14.07-.39.23-.73.47-.94l26.64-23.46c.17-.15.36-.22.55-.22.37,0,.7.27.9.72.15.35.19.75.13,1.15-.07.39-.23.72-.47.93l-26.64,23.46c-.17.15-.36.22-.55.22Z"/>
            </g>
            <g>
              <path d="M303.97,664.4c-.19,0-.38-.08-.55-.22l-26.65-23.46c-.24-.21-.41-.54-.47-.94-.07-.39-.02-.8.13-1.14.19-.45.53-.72.9-.72.19,0,.38.08.55.22l26.64,23.46c.24.21.41.54.47.94s.02.8-.13,1.14c-.19.45-.53.72-.9.72Z"/>
              <path d="M277.33,664.4c-.37,0-.7-.27-.9-.72-.15-.34-.19-.75-.13-1.14.07-.39.23-.73.47-.94l26.64-23.46c.17-.15.36-.22.55-.22.37,0,.7.27.9.72.15.34.19.75.13,1.14-.07.39-.23.72-.47.93l-26.64,23.46c-.17.15-.36.22-.55.22Z"/>
            </g>
          </g>
          <g id="Ladder">
            <rect class="st0" x="289.1" y="261.89" width="3.26" height="28.58" rx=".61" ry=".61" transform="translate(566.91 -14.56) rotate(90)"/>
            <rect class="st0" x="289.1" y="308.68" width="3.26" height="28.58" rx=".61" ry=".61" transform="translate(613.7 32.23) rotate(90)"/>
            <rect class="st0" x="289.1" y="355.47" width="3.26" height="28.58" rx=".61" ry=".61" transform="translate(660.5 79.03) rotate(90)"/>
            <rect class="st0" x="289.1" y="402.27" width="3.26" height="28.58" rx=".61" ry=".61" transform="translate(707.29 125.82) rotate(90)"/>
            <rect class="st0" x="289.1" y="449.06" width="3.26" height="28.58" rx=".61" ry=".61" transform="translate(754.09 172.62) rotate(90)"/>
            <rect class="st0" x="289.1" y="495.86" width="3.26" height="28.58" rx=".61" ry=".61" transform="translate(800.88 219.41) rotate(90)"/>
            <rect class="st0" x="289.11" y="542.65" width="3.26" height="28.58" rx=".61" ry=".61" transform="translate(847.67 266.2) rotate(90)"/>
            <rect class="st0" x="289.1" y="588.4" width="3.26" height="28.58" rx=".61" ry=".61" transform="translate(893.42 311.95) rotate(90)"/>
            <rect class="st0" x="289.1" y="634.15" width="3.26" height="28.58" rx=".61" ry=".61" transform="translate(939.17 357.7) rotate(90)"/>
          </g>
          <g id="Frame">
            <path class="st0" d="M293.33,228.82h2.19c.34,0,.61.27.61.61v24.36c0,.34-.27.61-.61.61h-2.19c-5.46,0-9.89-4.43-9.89-9.89v-5.8c0-5.46,4.43-9.89,9.89-9.89Z" transform="translate(531.39 -48.18) rotate(90)"/>
            <g>
              <rect x="76.3" y="449.93" width="402.06" height="3.87" rx="1.22" ry="1.22" transform="translate(729.2 174.54) rotate(90)"/>
              <rect x="102.94" y="449.93" width="402.06" height="3.87" rx="1.22" ry="1.22" transform="translate(755.84 147.89) rotate(90)"/>
              <rect class="st0" x="286.21" y="239.84" width="8.88" height="30.51" rx="1.22" ry="1.22" transform="translate(545.75 -35.55) rotate(90)"/>
            </g>
          </g>
        </g>
        <path id="Base" d="M296.16,604.83h2.31c.18,0,.32.14.32.32v106.33c0,.18-.14.32-.32.32h-2.31c-7.53,0-13.65-6.12-13.65-13.65v-79.67c0-7.53,6.12-13.65,13.65-13.65Z" transform="translate(948.97 367.67) rotate(90)"/>
        <g id="Strings">
          <g id="Apex">
            <path d="M307.87,242.91c-.63,0-1.18-.45-1.31-1.07l-12.66-58.9h-4.45l-14.7,58.86c-.11.64-.66,1.11-1.32,1.11-.07,0-.15,0-.22-.02-.35-.06-.66-.25-.87-.54-.21-.29-.29-.64-.23-1l14.89-59.97c.11-.65.66-1.11,1.32-1.11h6.68c.63,0,1.18.45,1.31,1.07l12.88,59.97c.07.35,0,.71-.19,1-.2.3-.5.5-.85.57-.09.02-.18.03-.27.03Z"/>
          </g>
          <g id="Rope">
            <path class="st0" d="M288.74,181.31c-.16-.23-.48-.29-.72-.13l-69.97,64.48c.25.24.51.48.76.72l69.79-64.35c.23-.16.29-.48.13-.71Z"/>
          </g>
          <g id="Rope1" data-name="Rope">
            <path class="st0" d="M407.15,244.96l-112.44-62.93c-.24-.16-.3-.48-.14-.71.16-.23.48-.3.71-.14l112.53,62.99"/>
            <path class="st0" d="M427.98,285.2"/>
          </g>
          <g id="Rope2" data-name="Rope">
            <path class="st0" d="M444.95,228.34l-150.12-46.24c-.27-.09-.41-.39-.32-.65.09-.27.39-.41.65-.32l150.22,46.28"/>
            <path class="st0" d="M450.26,247.25"/>
          </g>
          <g id="Grip">
            <path d="M216.06,242.67c-.31,0-.57-.25-.57-.57,0-3.62,2.94-6.56,6.56-6.56h10.34c3.62,0,6.56,2.94,6.56,6.56,0,.31-.25.57-.57.57h-22.32Z"/>
          </g>
        </g>
        <g id="Arm1" data-name="Arm">
          <path id="Right_arm" d="M585.87,256.03h23.74v41.25c0,6.95-5.64,12.59-12.59,12.59h-3.37c-4.3,0-7.78-3.49-7.78-7.78v-46.06h0Z"/>
          <g id="Ascender">
            <path d="M462.75,197.91h4.49c5.62,0,10.19,4.56,10.19,10.19v3.37c0,5.62-4.56,10.19-10.19,10.19h-4.49v-23.74h0Z"/>
            <path d="M448.9,197.91h13.85v64.87h-23.74v-54.98c0-5.46,4.43-9.89,9.89-9.89Z"/>
          </g>
          <path id="Left_arm" d="M175.99,239.03h15.96v74.52c0,6.95-5.64,12.59-12.59,12.59h-3.37c-4.3,0-7.78-3.49-7.78-7.78v-71.55c0-4.3,3.49-7.78,7.78-7.78Z"/>
          <path id="Arm2" data-name="Arm" d="M377.04,30.2h11.15c6.95,0,12.59,5.64,12.59,12.59v416.23c0,6.95-5.64,12.59-12.59,12.59h-3.37c-4.3,0-7.78-3.49-7.78-7.78V30.2h0Z" transform="translate(138.01 639.81) rotate(-90)"/>
        </g>
      </g>
      <g id="Hook">
        <path class="st0" d="M450.88,301.61c-2.28,0-4.14-1.86-4.14-4.14,0-.43.35-.77.77-.77s.77.34.77.77c0,1.43,1.17,2.6,2.6,2.6s2.6-1.17,2.6-2.6-1.17-2.6-2.6-2.6c-.43,0-.77-.34-.77-.77v-2.15c0-.43.35-.77.77-.77s.77.34.77.77v1.45c1.92.36,3.37,2.05,3.37,4.07,0,2.28-1.86,4.14-4.14,4.14Z"/>
        <path d="M441.68,265.88c-1.4,0-2.54-1.14-2.54-2.54,0-.31.25-.57.57-.57h22.34c.31,0,.57.25.57.57,0,1.4-1.14,2.54-2.54,2.54h-18.4Z"/>
        <g>
          <path class="st0" d="M448.06,277.34c-.28,0-.51-.07-.51-.16v-12.05c0-.09.23-.16.51-.16s.51.07.51.16v12.05c0,.09-.23.16-.51.16Z"/>
          <path class="st0" d="M453.7,277.34c-.28,0-.51-.07-.51-.16v-12.05c0-.09.23-.16.51-.16s.51.07.51.16v12.05c0,.09-.23.16-.51.16Z"/>
        </g>
        <path d="M447.8,292.09c-1.13,0-2.09-.81-2.27-1.93l-2.25-13.73c-.11-.67.08-1.35.52-1.86.44-.52,1.08-.81,1.76-.81h10.67c.69,0,1.33.3,1.77.83.44.53.62,1.22.49,1.89l-2.53,13.73c-.2,1.09-1.15,1.89-2.27,1.89h-5.89Z"/>
      </g>
      <g id="Car">
        <path id="Car:_Bottom" d="M305.91,268.41h1.29c4.3,0,7.78,3.49,7.78,7.78v6.89h-9.07v-14.67h0Z"/>
        <path id="Car:_Top" d="M305.91,282.66h18.11c3.11,0,5.63,2.52,5.63,5.63v3.37c0,8.14-6.61,14.74-14.74,14.74h-9v-23.74h0Z"/>
      </g>
    </g>
  </g>
</svg>