<?xml version="1.0" encoding="UTF-8"?>
<svg id="Emblem" xmlns="http://www.w3.org/2000/svg" xmlns:xlink="http://www.w3.org/1999/xlink" version="1.1" viewBox="0 0 3106.56 1920">
  <!-- Generator: Adobe Illustrator 30.1.0, SVG Export Plug-In . SVG Version: 2.1.1 Build 136)  -->
  <defs>
    <style>
      .st0 {
        fill: none;
      }

      .st1 {
        fill: #010101;
      }

      .st2 {
        fill: #ffac00;
        font-family: Helvetica-Light, Helvetica;
        font-size: 121.91px;
        font-weight: 300;
        letter-spacing: -.01em;
      }

      .st3 {
        fill: #f7ab1a;
      }

      .st4 {
        fill: #d8d8d8;
      }

      .st5 {
        clip-path: url(#clippath-1);
      }

      .st6 {
        clip-path: url(#clippath);
      }

      .st7 {
        fill: #b2b2b2;
      }
    </style>
    <clipPath id="clippath">
      <rect class="st0" x="1230.23" y="321.95" width="646.11" height="646.11"/>
    </clipPath>
    <clipPath id="clippath-1">
      <rect class="st0" x="1230.23" y="321.95" width="646.11" height="646.11"/>
    </clipPath>
  </defs>
  <g id="Signature">
    <g>
      <path class="st1" d="M661.55,1112.04v-127.46h-63.84v-32.14h159.6v32.14h-63.62v127.46h-32.14Z"/>
      <path class="st1" d="M827.35,1112.04l-58.08-159.6h33.92l36.57,99.97,36.57-99.97h30.15l36.8,99.97,36.57-99.97h33.91l-58.08,159.6h-24.83l-39.46-107.73-39.23,107.73h-24.83Z"/>
      <path class="st1" d="M1030.83,1112.04v-159.6h31.7v159.6h-31.7Z"/>
      <path class="st1" d="M1082.7,1112.04v-159.6h33.91l93.32,111.27v-111.27h32.36v159.6h-33.91l-93.76-111.72v111.72h-31.92Z"/>
      <path class="st1" d="M1337.61,952.44h121.47c5.76,0,11.04,1.44,15.85,4.32,4.8,2.88,8.68,6.76,11.64,11.64,2.95,4.88,4.43,10.2,4.43,15.96v30.59c0,1.92-.15,3.73-.44,5.43-.3,1.7-.74,3.36-1.33,4.99,2.36,3.1,4.28,6.47,5.76,10.09,1.48,3.62,2.22,7.28,2.22,10.97v33.69c0,5.76-1.48,11.08-4.43,15.96-2.96,4.88-6.87,8.76-11.75,11.64s-10.2,4.32-15.96,4.32h-127.46v-159.6ZM1370.85,1014.73h86.45c.44,0,.78-.11,1-.33s.33-.48.33-.78v-27.71c0-.29-.11-.59-.33-.89-.22-.29-.55-.44-1-.44h-86.45c-.3,0-.59.15-.89.44s-.44.59-.44.89v27.71c0,.3.15.55.44.78.29.22.59.33.89.33ZM1370.85,1079.9h92.65c.29,0,.59-.15.89-.44.29-.29.44-.59.44-.89v-30.37c0-.29-.15-.59-.44-.89-.3-.29-.59-.44-.89-.44h-92.65c-.3,0-.59.15-.89.44s-.44.59-.44.89v30.37c0,.3.15.59.44.89.29.3.59.44.89.44Z"/>
      <path class="st1" d="M1536.88,1107.72c-4.88-2.88-8.76-6.76-11.64-11.64-2.88-4.88-4.32-10.2-4.32-15.96v-127.68h31.92v126.12c0,.3.15.59.44.89.29.3.59.44.89.44h92.66c.29,0,.59-.15.89-.44.29-.29.44-.59.44-.89v-126.12h32.36v127.68c0,5.76-1.48,11.08-4.43,15.96-2.96,4.88-6.84,8.76-11.64,11.64-4.8,2.88-10.09,4.32-15.85,4.32h-95.76c-5.76,0-11.08-1.44-15.96-4.32Z"/>
      <path class="st1" d="M1700.46,1112.04v-159.6h31.7v159.6h-31.7Z"/>
      <path class="st1" d="M1752.55,1112.04v-159.82h31.92v127.68h127.68v32.14h-159.6Z"/>
      <path class="st1" d="M1925.44,1112.04v-159.6h127.46c5.76,0,11.08,1.44,15.96,4.32,4.88,2.88,8.79,6.76,11.75,11.64,2.95,4.88,4.43,10.2,4.43,15.96v95.76c0,5.76-1.48,11.08-4.43,15.96-2.96,4.88-6.87,8.76-11.75,11.64s-10.2,4.32-15.96,4.32h-127.46ZM1958.47,1079.9h92.88c.29,0,.59-.15.89-.44.29-.29.44-.59.44-.89v-92.65c0-.29-.15-.59-.44-.89-.3-.29-.59-.44-.89-.44h-92.88c-.3,0-.59.15-.89.44s-.44.59-.44.89v92.65c0,.3.15.59.44.89.29.3.59.44.89.44Z"/>
      <path class="st1" d="M2105.43,1112.04v-159.6h31.7v159.6h-31.7Z"/>
      <path class="st1" d="M2157.3,1112.04v-159.6h33.91l93.32,111.27v-111.27h32.36v159.6h-33.91l-93.76-111.72v111.72h-31.92Z"/>
      <path class="st1" d="M2373.64,1112.04c-5.76,0-11.08-1.44-15.96-4.32-4.88-2.88-8.76-6.76-11.64-11.64-2.88-4.88-4.32-10.2-4.32-15.96v-95.76c0-5.76,1.44-11.08,4.32-15.96,2.88-4.88,6.76-8.76,11.64-11.64,4.88-2.88,10.2-4.32,15.96-4.32h95.54c5.76,0,11.08,1.44,15.96,4.32,4.88,2.88,8.79,6.76,11.75,11.64,2.95,4.88,4.43,10.2,4.43,15.96v13.74h-32.36v-12.19c0-.29-.15-.59-.44-.89-.3-.29-.59-.44-.89-.44h-92.65c-.3,0-.59.15-.89.44s-.44.59-.44.89v92.65c0,.3.15.59.44.89.29.3.59.44.89.44h92.65c.29,0,.59-.15.89-.44.29-.29.44-.59.44-.89v-26.16h-35.24v-32.14h67.61v59.85c0,5.76-1.48,11.08-4.43,15.96-2.96,4.88-6.87,8.76-11.75,11.64s-10.2,4.32-15.96,4.32h-95.54Z"/>
    </g>
    <text class="st2" transform="translate(615.29 1280.93)"><tspan x="0" y="0">ENGINEERING DESIGN SERVICES</tspan></text>
  </g>
  <g id="Logo">
    <g class="st6">
      <polygon class="st4" points="1617.52 420.37 1617.52 869.64 1558.81 862.06 1558.81 456.96 1617.52 420.37"/>
      <polygon class="st7" points="1716.65 475.57 1716.65 862.06 1617.52 869.64 1617.52 420.37 1716.65 475.57"/>
      <polygon class="st7" points="1779.26 568.83 1779.26 857.37 1718 862.06 1718 526.77 1779.26 568.83"/>
      <polygon class="st4" points="1547.3 541.96 1547.3 862.06 1488.58 869.63 1488.58 512.9 1547.3 541.96"/>
      <polygon class="st7" points="1488.59 512.9 1488.59 869.64 1389.45 862.04 1389.45 556.74 1488.59 512.9"/>
      <polygon class="st7" points="1388.11 612.26 1388.11 862.04 1327.3 857.63 1327.3 643.84 1388.11 612.26"/>
      <g class="st5">
        <path d="M1668.74,655.58h-12.5v-65.62h12.5c2.97,0,5.38,2.41,5.38,5.38v54.85c0,2.97-2.41,5.38-5.38,5.38"/>
        <path d="M1531.37,770.89h-3.79c-2.97,0-5.38-2.41-5.38-5.38v-170.15c0-2.97,2.41-5.38,5.38-5.38h7.12c2.97,0,5.38,2.41,5.38,5.38v166.83c0,4.81-3.9,8.71-8.71,8.71"/>
        <path d="M1674.12,595.35v12.5h-151.92v-12.5c0-2.97,2.41-5.38,5.38-5.38h141.16c2.97,0,5.38,2.41,5.38,5.38"/>
        <path d="M1674.12,637.7v12.5c0,2.97-2.41,5.38-5.38,5.38h-146.54v-17.88h151.92Z"/>
        <path d="M1686.9,770.77h-3.79c-2.97,0-5.38-2.41-5.38-5.38v-82.66s12.5,0,12.5,0c2.97,0,5.38,2.41,5.38,5.38v73.95c0,4.81-3.9,8.71-8.71,8.71"/>
        <path d="M1695.61,688.11v12.5h-173.42v-17.88h168.03c2.97,0,5.38,2.41,5.38,5.38"/>
        <rect x="1522.2" y="730.46" width="173.42" height="17.88"/>
        <path d="M1489.3,569.32c-.15,0-.29-.06-.41-.17l-20.07-17.67c-.18-.16-.31-.41-.36-.7-.05-.3-.02-.6.1-.86.14-.34.4-.54.68-.54.15,0,.29.06.41.17l20.07,17.67c.18.16.31.41.36.7.05.3.02.6-.09.86-.15.34-.4.54-.68.54"/>
        <path d="M1469.23,569.32c-.28,0-.53-.2-.68-.54-.11-.26-.14-.57-.09-.86.05-.3.18-.55.36-.7l20.07-17.67c.12-.11.27-.17.41-.17.28,0,.53.2.68.54.11.26.14.57.1.86-.05.3-.18.55-.36.7l-20.07,17.67c-.12.11-.27.17-.41.17"/>
        <path d="M1489.3,586.98c-.15,0-.29-.06-.41-.17l-20.07-17.67c-.18-.16-.31-.41-.36-.7-.05-.3-.02-.6.1-.86.14-.34.4-.54.67-.54.15,0,.29.06.41.17l20.07,17.67c.18.16.31.41.36.7.05.3.02.6-.09.86-.14.34-.4.54-.68.54"/>
        <path d="M1469.23,586.98c-.28,0-.53-.2-.68-.54-.11-.26-.14-.56-.1-.86.05-.3.18-.55.36-.71l20.07-17.67c.12-.11.27-.17.41-.17.28,0,.53.2.67.54.11.26.14.57.1.86-.05.3-.18.55-.36.7l-20.07,17.67c-.12.11-.27.17-.41.17"/>
        <path d="M1489.3,604.65c-.15,0-.29-.06-.41-.17l-20.07-17.67c-.18-.16-.31-.41-.36-.7-.05-.3-.02-.6.09-.86.14-.34.4-.54.68-.54.15,0,.29.06.41.17l20.07,17.67c.18.16.31.41.36.7.05.3.02.6-.09.86-.15.34-.4.54-.68.54"/>
        <path d="M1469.23,604.65c-.28,0-.53-.2-.68-.54-.11-.26-.14-.57-.09-.86.05-.3.18-.55.36-.7l20.07-17.67c.12-.11.27-.17.41-.17.28,0,.53.2.67.54.11.26.14.57.09.86-.05.3-.18.55-.36.7l-20.07,17.67c-.12.11-.27.17-.41.17"/>
        <path d="M1489.3,622.32c-.15,0-.29-.06-.41-.17l-20.07-17.67c-.18-.16-.31-.41-.36-.7-.05-.3-.02-.6.1-.86.14-.34.4-.54.67-.54.15,0,.29.06.41.17l20.07,17.67c.18.16.31.41.36.7.05.3.02.6-.09.86-.15.34-.4.54-.68.54"/>
        <path d="M1469.23,622.32c-.28,0-.53-.2-.68-.54-.11-.26-.14-.56-.1-.86.05-.3.18-.55.36-.71l20.07-17.67c.12-.11.27-.17.41-.17.28,0,.53.2.67.54.11.26.14.56.09.86-.05.3-.18.55-.36.7l-20.07,17.67c-.12.11-.27.17-.41.17"/>
        <path d="M1489.3,639.99c-.15,0-.29-.06-.41-.17l-20.07-17.67c-.18-.16-.31-.41-.36-.7-.05-.3-.02-.6.1-.86.14-.34.4-.54.67-.54.15,0,.29.06.41.17l20.07,17.67c.18.16.31.41.36.7.05.3.02.6-.09.86-.14.34-.4.54-.68.54"/>
        <path d="M1469.23,639.99c-.28,0-.53-.2-.68-.54-.11-.26-.14-.56-.1-.86.05-.3.18-.55.36-.7l20.07-17.67c.12-.11.27-.17.41-.17.28,0,.53.2.67.54.11.26.14.57.1.86-.05.3-.18.55-.36.7l-20.07,17.67c-.13.11-.27.17-.41.17"/>
        <path d="M1489.3,657.66c-.15,0-.29-.06-.41-.17l-20.07-17.67c-.18-.16-.31-.41-.36-.7-.05-.3-.02-.6.09-.86.14-.34.4-.54.68-.54.15,0,.29.06.41.17l20.07,17.67c.18.16.31.41.36.71.05.3.02.6-.1.86-.14.34-.4.54-.67.54"/>
        <path d="M1469.23,657.66c-.28,0-.53-.2-.68-.54-.11-.26-.14-.56-.1-.86s.18-.55.36-.71l20.07-17.67c.12-.11.27-.17.41-.17.28,0,.53.2.67.54.23.54.11,1.24-.26,1.57l-20.07,17.67c-.13.11-.27.17-.41.17"/>
        <path d="M1489.3,675.33c-.15,0-.29-.06-.41-.17l-20.07-17.67c-.18-.16-.31-.41-.36-.71-.05-.3-.02-.6.1-.86.14-.34.4-.54.67-.54.15,0,.29.06.41.17l20.07,17.67c.18.16.31.41.36.7.05.3.02.6-.09.86-.14.34-.4.54-.68.54"/>
        <path d="M1469.23,675.33c-.28,0-.53-.2-.68-.54-.11-.26-.14-.56-.1-.86.05-.3.18-.55.36-.71l20.07-17.67c.13-.11.27-.17.41-.17.28,0,.53.2.68.54.11.26.14.56.09.86-.05.3-.18.55-.36.71l-20.07,17.67c-.12.11-.27.17-.41.17"/>
        <path d="M1489.3,693c-.15,0-.29-.06-.41-.17l-20.07-17.67c-.18-.16-.31-.41-.36-.7-.05-.3-.02-.6.1-.86.14-.34.4-.54.67-.54.15,0,.29.06.41.17l20.07,17.67c.18.16.31.41.36.7.05.3.02.6-.09.86-.15.34-.4.54-.68.54"/>
        <path d="M1469.23,693c-.28,0-.53-.2-.68-.54-.11-.26-.14-.56-.1-.86.05-.3.18-.55.36-.71l20.07-17.67c.12-.11.27-.17.41-.17.28,0,.53.2.67.54.11.26.14.57.1.86-.05.3-.18.55-.36.7l-20.07,17.67c-.12.11-.27.17-.41.17"/>
        <path d="M1489.3,710.67c-.15,0-.29-.06-.41-.17l-20.07-17.67c-.18-.16-.31-.41-.36-.7-.05-.3-.02-.6.1-.86.14-.34.4-.54.67-.54.15,0,.29.06.41.17l20.07,17.67c.37.33.49,1.03.26,1.56-.15.34-.4.54-.68.54"/>
        <path d="M1469.23,710.67c-.28,0-.53-.2-.68-.54-.11-.26-.14-.56-.1-.86.05-.3.18-.55.36-.71l20.07-17.67c.12-.11.27-.17.41-.17.28,0,.53.2.67.54.11.26.14.57.1.86-.05.3-.18.55-.36.7l-20.07,17.67c-.13.11-.27.17-.41.17"/>
        <path d="M1489.3,728.34c-.15,0-.29-.06-.41-.17l-20.07-17.67c-.18-.16-.31-.41-.36-.7-.05-.3-.02-.6.1-.86.14-.34.4-.54.68-.54.15,0,.29.06.41.17l20.07,17.67c.18.16.31.41.36.7.05.3.02.6-.09.86-.15.34-.4.54-.68.54"/>
        <path d="M1469.23,728.34c-.28,0-.53-.2-.67-.54-.11-.26-.15-.57-.1-.86.05-.29.18-.55.36-.7l20.07-17.67c.12-.11.27-.17.41-.17.28,0,.53.2.68.54.11.26.14.57.1.86-.05.3-.18.55-.36.7l-20.07,17.67c-.13.11-.27.17-.41.17"/>
        <path d="M1489.3,746.01c-.15,0-.29-.06-.41-.17l-20.07-17.67c-.18-.16-.31-.41-.36-.71-.05-.3-.02-.6.1-.86.14-.34.4-.54.67-.54.15,0,.29.06.41.17l20.07,17.67c.18.16.31.41.36.71.05.3.02.6-.1.86-.14.34-.4.54-.67.54"/>
        <path d="M1469.23,746.01c-.28,0-.53-.2-.68-.54-.11-.26-.14-.56-.1-.86.05-.3.18-.55.36-.71l20.07-17.67c.12-.11.27-.17.41-.17.28,0,.53.2.67.54.11.26.14.56.09.86-.05.3-.18.55-.36.7l-20.07,17.67c-.13.11-.27.17-.41.17"/>
        <path d="M1489.3,763.68c-.15,0-.29-.06-.41-.17l-20.07-17.67c-.18-.16-.31-.41-.36-.71-.05-.29-.02-.6.1-.86.14-.34.4-.54.67-.54.15,0,.29.06.41.17l20.07,17.67c.18.16.31.41.36.7s.02.6-.09.86c-.14.34-.4.54-.68.54"/>
        <path d="M1469.23,763.68c-.28,0-.53-.2-.68-.54-.11-.26-.14-.57-.09-.86.05-.29.18-.55.36-.7l20.07-17.67c.13-.11.27-.17.41-.17.28,0,.53.2.68.54.11.26.14.56.09.86-.05.3-.18.55-.36.7l-20.07,17.67c-.13.11-.27.17-.41.17"/>
        <path d="M1489.3,781.35c-.15,0-.29-.06-.41-.17l-20.07-17.67c-.18-.16-.31-.41-.36-.71-.05-.3-.02-.6.1-.86.14-.34.4-.54.67-.54.15,0,.29.06.41.17l20.07,17.67c.18.16.31.41.36.7s.02.6-.09.86c-.15.34-.4.54-.68.54"/>
        <path d="M1469.23,781.35c-.28,0-.53-.2-.67-.54-.11-.26-.15-.57-.1-.86.05-.29.18-.55.36-.7l20.07-17.67c.12-.11.27-.17.41-.17.28,0,.53.2.67.54.11.26.14.56.1.86s-.18.55-.36.7l-20.07,17.67c-.13.11-.27.17-.41.17"/>
        <path d="M1489.3,798.92c-.15,0-.29-.06-.41-.17l-20.07-17.67c-.18-.16-.31-.41-.36-.71-.05-.3-.02-.6.09-.86.14-.34.4-.54.68-.54.15,0,.29.06.41.17l20.07,17.67c.18.16.31.41.36.7.05.3.02.6-.09.86-.15.34-.4.54-.68.54"/>
        <path d="M1469.23,798.92c-.28,0-.53-.2-.67-.54-.11-.26-.15-.57-.1-.86.05-.29.18-.55.36-.7l20.07-17.67c.13-.11.27-.17.41-.17.28,0,.53.2.67.54.23.54.11,1.24-.26,1.57l-20.07,17.67c-.13.11-.27.17-.41.17"/>
        <path d="M1489.3,815.81c-.15,0-.29-.06-.41-.17l-20.07-17.67c-.18-.16-.31-.41-.36-.7-.05-.3-.02-.6.09-.86.14-.34.4-.54.68-.54.15,0,.29.06.41.17l20.07,17.67c.18.16.31.41.36.7.05.3.02.6-.09.86-.14.34-.4.54-.68.54"/>
        <path d="M1469.23,815.81c-.28,0-.53-.2-.68-.54-.11-.26-.14-.57-.09-.86.05-.29.18-.55.36-.7l20.07-17.67c.12-.11.27-.17.41-.17.28,0,.53.2.67.54.23.54.11,1.24-.26,1.56l-20.07,17.67c-.13.11-.27.17-.41.17"/>
        <path d="M1489.3,833.39c-.14,0-.29-.06-.41-.17l-20.07-17.67c-.18-.16-.31-.41-.36-.71-.05-.3-.02-.6.1-.86.14-.34.4-.54.67-.54.15,0,.29.06.41.17l20.07,17.67c.37.33.49,1.03.26,1.56-.14.34-.4.54-.68.54"/>
        <path d="M1469.23,833.39c-.28,0-.53-.2-.68-.54-.11-.26-.14-.56-.09-.86.05-.29.18-.54.36-.7l20.07-17.67c.13-.11.27-.17.41-.17.28,0,.53.2.68.54.11.26.14.56.09.86-.05.3-.18.55-.36.7l-20.07,17.67c-.13.11-.27.17-.41.17"/>
        <path d="M1489.3,850.27c-.14,0-.29-.06-.41-.17l-20.07-17.67c-.18-.16-.31-.41-.36-.7-.05-.3-.02-.6.09-.86.14-.34.4-.54.68-.54.15,0,.29.06.41.17l20.07,17.67c.18.16.31.41.36.71.05.3.02.6-.1.86-.14.34-.4.54-.67.54"/>
        <path d="M1469.23,850.27c-.28,0-.53-.2-.68-.54-.11-.26-.14-.56-.1-.86.05-.3.18-.55.36-.71l20.07-17.67c.12-.11.27-.17.41-.17.28,0,.53.2.67.54.11.26.14.57.09.86-.05.3-.18.55-.36.7l-20.07,17.67c-.13.11-.27.17-.41.17"/>
        <path d="M1489.3,867.85c-.14,0-.29-.06-.41-.17l-20.07-17.67c-.18-.16-.31-.41-.36-.71-.05-.3-.02-.6.1-.86.14-.34.4-.54.67-.54.15,0,.29.06.41.17l20.07,17.67c.18.16.31.41.36.71.05.3.02.6-.1.86-.14.34-.4.54-.67.54"/>
        <path d="M1469.23,867.85c-.28,0-.53-.2-.68-.54-.11-.26-.14-.56-.1-.86.05-.3.18-.55.36-.71l20.07-17.67c.12-.11.27-.17.41-.17.28,0,.53.2.67.54.11.26.14.56.09.86-.05.3-.18.55-.36.7l-20.07,17.67c-.13.11-.27.17-.41.17"/>
        <path class="st3" d="M1468.56,576.43v-2.05c0-.11.09-.21.21-.21h21.12c.11,0,.21.09.21.21v2.05c0,.11-.09.21-.21.21h-21.12c-.11,0-.21-.09-.21-.21"/>
        <path class="st3" d="M1468.56,611.68v-2.05c0-.11.09-.21.21-.21h21.12c.11,0,.21.09.21.21v2.05c0,.11-.09.21-.21.21h-21.12c-.11,0-.21-.09-.21-.21"/>
        <path class="st3" d="M1468.56,646.93v-2.05c0-.11.09-.21.21-.21h21.12c.11,0,.21.09.21.21v2.05c0,.11-.09.21-.21.21h-21.12c-.11,0-.21-.09-.21-.21"/>
        <path class="st3" d="M1468.56,682.18v-2.05c0-.11.09-.21.21-.21h21.12c.11,0,.21.09.21.21v2.05c0,.11-.09.21-.21.21h-21.12c-.11,0-.21-.09-.21-.21"/>
        <path class="st3" d="M1468.56,717.43v-2.05c0-.11.09-.21.21-.21h21.12c.11,0,.21.09.21.21v2.05c0,.11-.09.21-.21.21h-21.12c-.11,0-.21-.09-.21-.21"/>
        <path class="st3" d="M1468.56,752.68v-2.05c0-.11.09-.21.21-.21h21.12c.11,0,.21.09.21.21v2.05c0,.11-.09.21-.21.21h-21.12c-.11,0-.21-.09-.21-.21"/>
        <path class="st3" d="M1468.56,787.92v-2.04c0-.11.09-.21.21-.21h21.12c.11,0,.21.09.21.21v2.04c0,.11-.09.21-.21.21h-21.12c-.11,0-.21-.09-.21-.21"/>
        <path class="st3" d="M1468.56,822.39v-2.05c0-.11.09-.21.21-.21h21.12c.11,0,.21.09.21.21v2.05c0,.11-.09.21-.21.21h-21.12c-.11,0-.21-.09-.21-.21"/>
        <path class="st3" d="M1468.56,856.85v-2.05c0-.11.09-.21.21-.21h21.12c.11,0,.21.09.21.21v2.05c0,.11-.09.21-.21.21h-21.12c-.11,0-.21-.09-.21-.21"/>
        <path class="st3" d="M1468.98,553.94v-6.02c0-1.84,1.49-3.33,3.33-3.33h12.61c1.84,0,3.33,1.49,3.33,3.33v6.02c0,.11-.09.21-.21.21h-18.86c-.11,0-.21-.09-.21-.21"/>
        <path d="M1467.77,858.78v-302.04c0-.23.18-.41.41-.41h2.09c.23,0,.41.18.41.41v302.04c0,.23-.18.41-.41.41h-2.09c-.23,0-.41-.18-.41-.41"/>
        <path d="M1487.84,858.78v-302.04c0-.23.18-.41.41-.41h2.09c.23,0,.41.18.41.41v302.04c0,.23-.18.41-.41.41h-2.09c-.23,0-.41-.18-.41-.41"/>
        <path class="st3" d="M1467.77,562.47v-5.87c0-.23.18-.41.41-.41h22.16c.23,0,.41.18.41.41v5.87c0,.23-.18.41-.41.41h-22.16c-.23,0-.41-.18-.41-.41"/>
        <path d="M1438.98,869.2v-3.35c0-4.81,3.9-8.71,8.71-8.71h63.15c4.81,0,8.71,3.9,8.71,8.71v3.35c0,.11-.09.21-.21.21h-80.17c-.11,0-.21-.09-.21-.21"/>
        <path d="M1492.24,550.35c-.48,0-.89-.34-.99-.81l-9.54-44.37h-3.35l-11.07,44.33c-.08.49-.5.84-.99.84-.05,0-.11,0-.17-.01-.27-.04-.5-.19-.65-.41-.16-.22-.22-.49-.17-.75l11.21-45.17c.08-.49.5-.84.99-.84h5.03c.48,0,.89.34.99.81l9.7,45.17c.05.26,0,.53-.15.76-.15.22-.38.38-.64.43-.07.01-.13.02-.2.02"/>
        <path class="st3" d="M1477.83,503.95c-.12-.18-.36-.22-.54-.1l-52.71,48.57c.19.18.38.36.58.54l52.57-48.48c.18-.12.22-.36.1-.54"/>
        <path class="st3" d="M1567.02,551.9l-84.7-47.4c-.18-.12-.22-.36-.1-.54.12-.18.36-.22.54-.1l84.77,47.45"/>
        <path class="st3" d="M1595.49,539.37l-113.08-34.83c-.2-.07-.31-.29-.24-.49.07-.2.29-.31.49-.24l113.16,34.86"/>
        <path d="M1423.08,550.17c-.24,0-.43-.19-.43-.43,0-2.72,2.22-4.94,4.94-4.94h7.79c2.72,0,4.94,2.22,4.94,4.94,0,.24-.19.43-.43.43h-16.81Z"/>
        <path d="M1714.15,600.79h-9.17c-1.84,0-3.33-1.49-3.33-3.33v-37.23h17.88v35.17c0,2.97-2.41,5.38-5.38,5.38"/>
        <path d="M1614.57,534.34h-5.67v-17.88h5.67c2.97,0,5.38,2.41,5.38,5.38v7.12c0,2.97-2.41,5.38-5.38,5.38"/>
        <path d="M1608.9,565.32h-17.88v-45.54c0-1.84,1.49-3.33,3.33-3.33h14.56v48.86Z"/>
        <path d="M1396.2,613.05h-3.79c-2.97,0-5.38-2.41-5.38-5.38v-54.85c0-2.97,2.41-5.38,5.38-5.38h12.5v56.91c0,4.81-3.9,8.71-8.71,8.71"/>
        <path d="M1719.53,552.82v9.17c0,1.84-1.49,3.33-3.33,3.33h-329.18v-12.5c0-2.97,2.41-5.38,5.38-5.38h321.73c2.97,0,5.38,2.41,5.38,5.38"/>
        <path class="st3" d="M1599.96,594.57c-1.72,0-3.12-1.4-3.12-3.12,0-.32.26-.58.58-.58s.58.26.58.58c0,1.08.88,1.96,1.96,1.96s1.96-.88,1.96-1.96-.88-1.96-1.96-1.96c-.32,0-.58-.26-.58-.58v-1.62c0-.32.26-.58.58-.58s.58.26.58.58v1.09c1.44.27,2.54,1.54,2.54,3.06,0,1.72-1.4,3.12-3.12,3.12"/>
        <path d="M1593.03,567.66c-1.05,0-1.91-.86-1.91-1.91,0-.24.19-.43.43-.43h16.83c.24,0,.43.19.43.43,0,1.05-.86,1.91-1.91,1.91h-13.86Z"/>
        <path class="st3" d="M1597.83,576.29c-.21,0-.39-.06-.39-.12v-9.07c0-.07.17-.12.39-.12s.39.06.39.12v9.07c0,.07-.17.12-.39.12"/>
        <path class="st3" d="M1602.09,576.29c-.21,0-.39-.06-.39-.12v-9.07c0-.07.17-.12.39-.12s.39.06.39.12v9.07c0,.07-.17.12-.39.12"/>
        <path d="M1597.64,587.4c-.85,0-1.57-.61-1.71-1.45l-1.7-10.34c-.08-.5.06-1.02.39-1.4.33-.39.81-.61,1.32-.61h8.04c.52,0,1,.23,1.33.62.33.4.47.92.37,1.42l-1.9,10.34c-.15.82-.87,1.42-1.71,1.42h-4.44Z"/>
        <path d="M1490.76,569.56h0v11.05h6.83v-4.22c0-3.77-3.06-6.83-6.83-6.83"/>
        <path d="M1505.31,580.29h-14.56v17.88s9.17,0,9.17,0c4.81,0,8.71-3.9,8.71-8.71v-5.84c0-1.84-1.49-3.33-3.33-3.33"/>
      </g>
    </g>
  </g>
</svg>