<?xml version="1.0" encoding="UTF-8" standalone="no"?>
<svg
   id="Layer_1"
   data-name="Layer 1"
   viewBox="0 0 135.35026 114.16001"
   version="1.1"
   sodipodi:docname="gcash.svg"
   width="135.35027"
   height="114.16"
   inkscape:export-filename="gcash.png"
   inkscape:export-xdpi="430.67001"
   inkscape:export-ydpi="430.67001"
   inkscape:version="1.2.2 (b0a8486541, 2022-12-01)"
   xmlns:inkscape="http://www.inkscape.org/namespaces/inkscape"
   xmlns:sodipodi="http://sodipodi.sourceforge.net/DTD/sodipodi-0.dtd"
   xmlns="http://www.w3.org/2000/svg"
   xmlns:svg="http://www.w3.org/2000/svg"
   xmlns:rdf="http://www.w3.org/1999/02/22-rdf-syntax-ns#"
   xmlns:cc="http://creativecommons.org/ns#"
   xmlns:dc="http://purl.org/dc/elements/1.1/">
  <defs
     id="defs231" />
  <sodipodi:namedview
     id="namedview229"
     pagecolor="#ffffff"
     bordercolor="#000000"
     borderopacity="0.25"
     inkscape:showpageshadow="2"
     inkscape:pageopacity="0.0"
     inkscape:pagecheckerboard="0"
     inkscape:deskcolor="#d1d1d1"
     showgrid="false"
     inkscape:zoom="6.5101202"
     inkscape:cx="33.716735"
     inkscape:cy="56.988195"
     inkscape:window-width="1920"
     inkscape:window-height="978"
     inkscape:window-x="0"
     inkscape:window-y="0"
     inkscape:window-maximized="1"
     inkscape:current-layer="Layer_1" />
  <title
     id="title218">GCash logo - Brandlogos.net</title>
  <path
     d="m 122.25778,57.075193 a 64.85,64.85 0 0 1 -7,29.49 6.56,6.56 0 0 0 2.33,8.54 v 0 a 6.53,6.53 0 0 0 9,-2 q 0.16,-0.25 0.29,-0.51 a 78.4,78.4 0 0 0 0,-70.9 6.54,6.54 0 0 0 -8.81,-2.81 l -0.5,0.29 v 0 a 6.56,6.56 0 0 0 -2.33,8.53 64.88,64.88 0 0 1 7.02,29.37 z"
     style="fill:#51c1ff"
     id="path220" />
  <path
     d="m 101.08778,57.075193 a 43.85,43.85 0 0 1 -3.999999,18.4 6.55,6.55 0 0 0 2.46,8.28 v 0 a 6.56,6.56 0 0 0 9.479999,-2.82 57.4,57.4 0 0 0 0,-47.68 6.56,6.56 0 0 0 -9.449999,-2.82 v 0 a 6.55,6.55 0 0 0 -2.46,8.28 43.85,43.85 0 0 1 3.969999,18.36 z"
     style="fill:#51c1ff"
     id="path222" />
  <path
     d="m 57.087781,101.06519 a 44,44 0 1 1 26.87,-78.849997 6.54,6.54 0 0 0 8.63,-0.53 v 0 a 6.53,6.53 0 0 0 -0.63,-9.79 57.08,57.08 0 1 0 0.09,90.299997 6.44,6.44 0 0 0 0.61,-9.629997 l -0.14,-0.14 a 6.45,6.45 0 0 0 -8.49,-0.49 43.82,43.82 0 0 1 -26.94,9.129997 z"
     style="fill:#007cff"
     id="path224" />
  <path
     d="m 92.177781,52.285193 a 6.75,6.75 0 0 0 -4.76,-2 v 0 h -31.35 v 0 a 6.77,6.77 0 1 0 0,13.53 h 23.59 a 23.52,23.52 0 1 1 -10,-26.75 6.78,6.78 0 0 0 8.4,-1 v 0 a 6.75,6.75 0 0 0 -1.14,-10.45 37.36,37.36 0 0 0 -27.8,-4.88 36.55,36.55 0 0 0 -28.24,28.48 37.08,37.08 0 1 0 73.34,7.78 6.78,6.78 0 0 0 -2.04,-4.71 z"
     style="fill:#002cb8"
     id="path226" />
  <metadata
     id="metadata233">
    <rdf:RDF>
      <cc:Work
         rdf:about="">
        <dc:title>GCash logo - Brandlogos.net</dc:title>
      </cc:Work>
    </rdf:RDF>
  </metadata>
</svg>
