<?xml version="1.0" encoding="UTF-8"?>
<svg id="Icon" xmlns="http://www.w3.org/2000/svg" version="1.1" viewBox="0 0 1920 1920">
  <!-- Generator: Adobe Illustrator 30.1.0, SVG Export Plug-In . SVG Version: 2.1.1 Build 136)  -->
  <defs>
    <style>
      .st0 {
        fill: #f7ab1a;
      }

      .st1 {
        fill: #d8d8d8;
      }

      .st2 {
        fill: #b2b2b2;
      }
    </style>
  </defs>
  <g id="Buildings">
    <g id="Building:_Right">
      <polygon class="st1" points="1150.89 292.47 1150.89 1627.53 976.42 1605.01 976.42 401.19 1150.89 292.47"/>
      <g id="Side">
        <polygon class="st2" points="1445.48 456.5 1445.48 1605.01 1150.89 1627.54 1150.89 292.46 1445.48 456.5"/>
      </g>
      <g id="Side1" data-name="Side">
        <polygon class="st2" points="1631.54 733.64 1631.54 1591.09 1449.48 1605.01 1449.48 608.67 1631.54 733.64"/>
      </g>
    </g>
    <g id="Building:_Left">
      <polygon class="st1" points="942.22 653.78 942.22 1605.01 767.75 1627.51 767.75 567.44 942.22 653.78"/>
      <g id="Side2" data-name="Side">
        <polygon class="st2" points="767.76 567.44 767.76 1627.54 473.17 1604.95 473.17 697.7 767.76 567.44"/>
      </g>
      <g id="Side3" data-name="Side">
        <polygon class="st2" points="469.17 862.71 469.17 1604.95 288.46 1591.84 288.46 956.53 469.17 862.71"/>
      </g>
    </g>
  </g>
  <g id="Crane">
    <g id="Load">
      <path d="M1265.95,796.44h37.15c8.83,0,16,7.17,16,16v163c0,8.83-7.17,16-16,16h-37.15v-195h0Z"/>
      <path d="M883.63,796.44h21.15c8.83,0,16,7.17,16,16v495.75c0,14.29-11.6,25.89-25.89,25.89h-11.26c-8.83,0-16-7.17-16-16v-505.64c0-8.83,7.17-16,16-16Z"/>
      <path d="M1066.79,597.28h37.15c8.83,0,16,7.17,16,16v419.47c0,8.83-7.17,16-16,16h-37.15v-451.47h0Z" transform="translate(270.34 1916.37) rotate(-90)"/>
      <path d="M1066.79,739.14h53.15v451.47h-37.15c-8.83,0-16-7.17-16-16v-435.47h0Z" transform="translate(128.49 2058.23) rotate(-90)"/>
      <path d="M1329.81,1072.09h37.15c8.83,0,16,7.17,16,16v219.75c0,14.29-11.6,25.89-25.89,25.89h-11.26c-8.83,0-16-7.17-16-16v-245.63h0Z"/>
      <path d="M1098.72,841h53.15v499.33c0,8.83-7.17,16-16,16h-37.15v-515.33h0Z" transform="translate(26.63 2223.96) rotate(-90)"/>
      <rect x="1098.72" y="982.86" width="53.15" height="515.33" transform="translate(-115.23 2365.81) rotate(-90)"/>
    </g>
    <g id="Crane1" data-name="Crane">
      <g id="Leg">
        <g id="Criscross">
          <g>
            <path d="M769.88,735.08c-.43,0-.86-.17-1.23-.5l-59.64-52.5c-.54-.47-.91-1.21-1.06-2.09-.15-.88-.05-1.79.28-2.56.43-1.01,1.18-1.61,2.01-1.61.43,0,.86.17,1.23.5l59.64,52.51c.53.47.91,1.21,1.06,2.09.15.88.05,1.79-.28,2.56-.43,1.01-1.18,1.62-2.01,1.62Z"/>
            <path d="M710.24,735.08c-.82,0-1.57-.6-2.01-1.61-.33-.77-.43-1.68-.28-2.56.15-.88.52-1.62,1.06-2.09l59.64-52.51c.37-.33.79-.5,1.23-.5.82,0,1.57.6,2.01,1.61.33.77.43,1.68.28,2.56-.15.88-.52,1.62-1.06,2.09l-59.64,52.5c-.37.33-.79.5-1.23.5Z"/>
          </g>
          <g>
            <path d="M769.88,787.59c-.43,0-.86-.17-1.23-.5l-59.64-52.5c-.54-.47-.91-1.21-1.06-2.09-.15-.88-.05-1.79.28-2.56.43-1.01,1.18-1.61,2-1.61.43,0,.86.17,1.23.5l59.64,52.5c.53.47.91,1.21,1.06,2.09.15.88.05,1.79-.28,2.56-.43,1.01-1.18,1.61-2.01,1.61Z"/>
            <path d="M710.24,787.59c-.83,0-1.58-.6-2.01-1.62-.33-.77-.43-1.67-.28-2.55.15-.88.52-1.62,1.06-2.1l59.64-52.5c.37-.33.79-.5,1.23-.5.82,0,1.57.6,2,1.61.33.77.43,1.68.28,2.56-.15.88-.52,1.62-1.06,2.09l-59.64,52.5c-.37.33-.79.5-1.23.5Z"/>
          </g>
          <g>
            <path d="M769.88,840.1c-.43,0-.86-.17-1.23-.5l-59.64-52.51c-.54-.47-.91-1.21-1.06-2.09-.15-.88-.05-1.79.28-2.56.43-1.01,1.18-1.61,2.01-1.61.43,0,.86.17,1.23.5l59.64,52.51c.53.47.91,1.21,1.06,2.09.15.88.05,1.79-.28,2.56-.43,1.01-1.18,1.62-2.01,1.62Z"/>
            <path d="M710.24,840.1c-.82,0-1.57-.6-2.01-1.61-.33-.77-.43-1.68-.28-2.56.15-.88.52-1.62,1.06-2.09l59.64-52.51c.37-.33.79-.5,1.23-.5.82,0,1.57.6,2,1.61.33.77.43,1.68.28,2.56-.15.88-.52,1.62-1.06,2.09l-59.64,52.51c-.37.33-.79.5-1.23.5Z"/>
          </g>
          <g>
            <path d="M769.88,892.6c-.43,0-.86-.17-1.23-.5l-59.64-52.5c-.54-.47-.91-1.21-1.06-2.09-.15-.88-.05-1.79.28-2.56.43-1.01,1.18-1.61,2-1.61.43,0,.86.17,1.23.5l59.64,52.5c.53.47.91,1.21,1.06,2.09.15.88.05,1.79-.28,2.56-.43,1.01-1.18,1.61-2.01,1.61Z"/>
            <path d="M710.24,892.6c-.82,0-1.57-.6-2.01-1.61-.33-.77-.43-1.68-.28-2.56.15-.88.52-1.62,1.06-2.1l59.64-52.5c.37-.33.79-.5,1.23-.5.82,0,1.57.6,2,1.62.33.77.43,1.68.28,2.56-.15.88-.52,1.62-1.06,2.09l-59.64,52.5c-.37.33-.79.5-1.23.5Z"/>
          </g>
          <g>
            <path d="M769.88,945.11c-.43,0-.86-.17-1.23-.5l-59.64-52.51c-.54-.47-.91-1.21-1.06-2.09-.15-.88-.05-1.79.28-2.56.43-1.01,1.18-1.61,2-1.61.43,0,.86.17,1.23.5l59.64,52.5c.53.47.91,1.21,1.06,2.09.15.88.05,1.79-.28,2.56-.43,1.01-1.18,1.61-2.01,1.61Z"/>
            <path d="M710.24,945.11c-.83,0-1.58-.6-2.01-1.62-.33-.77-.43-1.67-.28-2.55.15-.88.52-1.62,1.06-2.1l59.64-52.5c.37-.33.79-.5,1.23-.5.82,0,1.57.6,2,1.61.33.77.43,1.68.28,2.56-.15.88-.52,1.62-1.06,2.09l-59.64,52.51c-.37.33-.8.5-1.23.5Z"/>
          </g>
          <g>
            <path d="M769.88,997.62c-.43,0-.85-.17-1.23-.5l-59.64-52.51c-.54-.47-.91-1.22-1.06-2.09-.15-.88-.05-1.79.28-2.56.43-1.01,1.18-1.61,2.01-1.61.43,0,.86.17,1.23.5l59.64,52.51c.54.47.91,1.22,1.06,2.1.15.88.05,1.79-.28,2.55-.43,1.01-1.18,1.61-2,1.61Z"/>
            <path d="M710.24,997.62c-.83,0-1.58-.6-2.01-1.62-.33-.76-.43-1.67-.28-2.55s.52-1.63,1.06-2.1l59.64-52.51c.37-.33.79-.5,1.23-.5.82,0,1.57.6,2,1.61.68,1.59.33,3.68-.78,4.65l-59.64,52.51c-.37.33-.8.5-1.23.5Z"/>
          </g>
          <g>
            <path d="M769.88,1050.12c-.43,0-.86-.17-1.23-.5l-59.64-52.5c-.54-.47-.91-1.22-1.06-2.1s-.04-1.79.29-2.55c.43-1,1.18-1.61,2-1.61.43,0,.86.17,1.23.5l59.64,52.51c.53.47.91,1.21,1.06,2.09.15.88.05,1.79-.28,2.56-.43,1.01-1.18,1.61-2.01,1.61Z"/>
            <path d="M710.24,1050.12c-.83,0-1.58-.6-2.01-1.62-.33-.77-.43-1.67-.28-2.55.15-.88.52-1.62,1.06-2.1l59.64-52.51c.37-.33.8-.5,1.23-.5.83,0,1.57.6,2.01,1.61.33.77.43,1.67.28,2.55-.15.88-.52,1.62-1.06,2.1l-59.64,52.51c-.37.33-.79.5-1.23.5Z"/>
          </g>
          <g>
            <path d="M769.88,1102.63c-.43,0-.86-.17-1.23-.5l-59.64-52.51c-.54-.47-.91-1.21-1.06-2.09-.15-.88-.05-1.79.28-2.56.43-1.01,1.18-1.61,2-1.61.43,0,.86.17,1.23.5l59.64,52.51c.53.47.91,1.21,1.06,2.09.15.88.05,1.79-.28,2.56-.43,1.01-1.18,1.61-2.01,1.61Z"/>
            <path d="M710.24,1102.63c-.82,0-1.57-.6-2.01-1.61-.33-.77-.43-1.68-.28-2.56.15-.88.52-1.62,1.06-2.1l59.64-52.51c.37-.33.8-.5,1.23-.5.82,0,1.57.6,2,1.61.33.77.43,1.68.28,2.56-.15.88-.52,1.62-1.06,2.09l-59.64,52.51c-.37.33-.79.5-1.23.5Z"/>
          </g>
          <g>
            <path d="M769.88,1155.14c-.43,0-.85-.17-1.23-.5l-59.64-52.51c-.54-.47-.91-1.21-1.06-2.09-.15-.88-.05-1.79.28-2.56.43-1.01,1.18-1.61,2-1.61.43,0,.86.17,1.23.5l59.64,52.5c1.11.98,1.46,3.06.78,4.65-.43,1.01-1.18,1.61-2.01,1.61Z"/>
            <path d="M710.24,1155.14c-.82,0-1.57-.6-2.01-1.61-.33-.77-.43-1.67-.28-2.55s.52-1.62,1.06-2.1l59.64-52.5c.37-.33.79-.5,1.23-.5.82,0,1.57.6,2,1.61.33.77.43,1.68.28,2.56-.15.88-.52,1.62-1.06,2.09l-59.64,52.5c-.37.33-.8.5-1.23.5Z"/>
          </g>
          <g>
            <path d="M769.88,1207.64c-.43,0-.86-.17-1.23-.5l-59.64-52.51c-.54-.47-.91-1.21-1.06-2.09-.15-.88-.05-1.79.28-2.56.43-1.01,1.18-1.61,2.01-1.61.43,0,.86.17,1.23.5l59.64,52.51c.53.47.91,1.21,1.06,2.09.15.88.05,1.79-.28,2.56-.43,1.01-1.18,1.61-2.01,1.61Z"/>
            <path d="M710.24,1207.64c-.82,0-1.57-.6-2-1.61-.33-.78-.43-1.69-.28-2.57.15-.88.52-1.62,1.06-2.09l59.64-52.51c.37-.33.79-.5,1.23-.5.82,0,1.57.6,2.01,1.61.33.77.43,1.68.28,2.56-.15.88-.52,1.62-1.06,2.09l-59.64,52.51c-.37.33-.8.5-1.23.5Z"/>
          </g>
          <g>
            <path d="M769.88,1260.15c-.43,0-.86-.17-1.23-.5l-59.64-52.51c-.54-.47-.91-1.22-1.06-2.1-.15-.88-.04-1.78.29-2.55.43-1,1.18-1.61,2-1.61.43,0,.86.17,1.23.5l59.64,52.5c.54.47.91,1.22,1.06,2.1s.05,1.78-.28,2.55c-.43,1.01-1.18,1.61-2,1.61Z"/>
            <path d="M710.24,1260.15c-.83,0-1.58-.6-2.01-1.62-.33-.76-.43-1.67-.28-2.55.15-.88.52-1.63,1.06-2.1l59.64-52.51c.37-.33.8-.5,1.23-.5.83,0,1.57.61,2,1.62.33.77.43,1.67.28,2.55-.15.88-.52,1.62-1.06,2.09l-59.64,52.51c-.37.33-.8.5-1.23.5Z"/>
          </g>
          <g>
            <path d="M769.88,1312.65c-.43,0-.86-.17-1.23-.5l-59.64-52.5c-.54-.47-.91-1.22-1.06-2.1-.15-.88-.04-1.78.29-2.55.43-1,1.18-1.61,2-1.61.43,0,.85.17,1.22.49l59.64,52.51c.53.47.91,1.21,1.06,2.09.15.88.05,1.79-.28,2.56-.43,1.01-1.18,1.61-2.01,1.61Z"/>
            <path d="M710.24,1312.65c-.83,0-1.58-.6-2.01-1.61-.33-.77-.43-1.68-.28-2.56.15-.88.52-1.62,1.06-2.09l59.64-52.51c.37-.33.8-.5,1.23-.5.83,0,1.58.6,2.01,1.61.33.77.43,1.68.28,2.56-.15.88-.52,1.62-1.06,2.09l-59.64,52.51c-.37.33-.8.5-1.23.5Z"/>
          </g>
          <g>
            <path d="M769.88,1365.16c-.43,0-.86-.17-1.23-.5l-59.64-52.51c-.54-.47-.91-1.22-1.06-2.1-.15-.88-.04-1.78.29-2.55.43-1,1.18-1.61,2-1.61.43,0,.86.17,1.23.5l59.64,52.51c.53.47.91,1.21,1.06,2.09.15.88.05,1.79-.28,2.56-.43,1.01-1.18,1.61-2.01,1.61Z"/>
            <path d="M710.24,1365.16c-.82,0-1.57-.6-2-1.61-.33-.78-.43-1.69-.28-2.57.15-.88.52-1.62,1.06-2.09l59.64-52.51c.37-.33.8-.5,1.23-.5.82,0,1.57.6,2,1.61.33.77.43,1.67.28,2.55s-.52,1.62-1.06,2.1l-59.64,52.51c-.37.33-.8.5-1.23.5Z"/>
          </g>
          <g>
            <path d="M769.88,1417.39c-.43,0-.86-.17-1.23-.5l-59.64-52.5c-.54-.47-.91-1.22-1.06-2.1-.15-.88-.05-1.79.28-2.56.43-1.01,1.18-1.61,2.01-1.61.43,0,.85.17,1.22.49l59.64,52.51c.53.47.91,1.21,1.06,2.09.15.88.05,1.79-.28,2.56-.43,1.01-1.18,1.61-2.01,1.61Z"/>
            <path d="M710.24,1417.39c-.82,0-1.57-.6-2-1.61-.33-.78-.43-1.69-.28-2.57.15-.88.52-1.62,1.06-2.09l59.64-52.51c.37-.33.8-.5,1.23-.5.82,0,1.57.6,2,1.61.68,1.59.33,3.68-.78,4.65l-59.64,52.51c-.37.33-.8.5-1.23.5Z"/>
          </g>
          <g>
            <path d="M769.88,1467.57c-.43,0-.86-.17-1.23-.5l-59.64-52.51c-.54-.47-.91-1.22-1.06-2.09-.15-.88-.05-1.79.28-2.56.43-1.01,1.18-1.61,2.01-1.61.43,0,.86.17,1.23.5l59.64,52.51c.53.47.91,1.21,1.06,2.09.15.88.05,1.79-.28,2.56-.43,1.01-1.18,1.61-2.01,1.61Z"/>
            <path d="M710.24,1467.57c-.83,0-1.58-.6-2.01-1.61-.33-.77-.43-1.68-.28-2.56.15-.88.52-1.62,1.06-2.09l59.64-52.51c.37-.33.8-.5,1.23-.5.82,0,1.57.6,2,1.61.68,1.59.33,3.67-.78,4.65l-59.64,52.51c-.37.33-.8.5-1.23.5Z"/>
          </g>
          <g>
            <path d="M769.88,1519.81c-.43,0-.85-.17-1.23-.5l-59.64-52.5c-.54-.47-.91-1.22-1.06-2.1-.15-.88-.04-1.78.29-2.55.43-1,1.18-1.61,2-1.61.43,0,.85.17,1.22.49l59.64,52.51c1.1.98,1.45,3.06.78,4.65-.43,1.01-1.18,1.62-2.01,1.62Z"/>
            <path d="M710.24,1519.81c-.83,0-1.58-.6-2.01-1.62-.33-.77-.43-1.68-.28-2.56.15-.88.52-1.62,1.06-2.09l59.64-52.51c.37-.33.8-.5,1.23-.5.83,0,1.58.6,2.01,1.61.33.77.43,1.68.28,2.56-.15.88-.52,1.62-1.06,2.09l-59.64,52.51c-.37.33-.8.5-1.23.5Z"/>
          </g>
          <g>
            <path d="M769.88,1569.99c-.43,0-.85-.17-1.23-.5l-59.64-52.51c-.53-.47-.91-1.21-1.06-2.09-.15-.88-.05-1.79.28-2.56.43-1.01,1.18-1.61,2.01-1.61.43,0,.86.17,1.23.5l59.64,52.51c.54.47.91,1.22,1.06,2.1s.05,1.78-.28,2.55c-.43,1.01-1.18,1.61-2,1.61Z"/>
            <path d="M710.24,1569.99c-.83,0-1.58-.6-2.01-1.62-.33-.76-.43-1.67-.28-2.55.15-.88.52-1.63,1.06-2.1l59.64-52.51c.37-.33.8-.5,1.23-.5.82,0,1.57.6,2,1.61.33.78.43,1.68.28,2.56-.15.88-.52,1.62-1.06,2.09l-59.64,52.51c-.37.33-.8.5-1.23.5Z"/>
          </g>
          <g>
            <path d="M769.88,1622.22c-.43,0-.85-.17-1.23-.5l-59.64-52.5c-.54-.47-.91-1.22-1.06-2.1-.15-.88-.04-1.78.29-2.55.43-1,1.18-1.61,2-1.61.43,0,.86.17,1.23.5l59.64,52.5c.54.47.91,1.22,1.06,2.1s.05,1.78-.28,2.55c-.43,1.01-1.18,1.61-2,1.61Z"/>
            <path d="M710.24,1622.22c-.83,0-1.58-.6-2.01-1.62-.33-.76-.43-1.67-.28-2.55.15-.88.52-1.63,1.06-2.1l59.64-52.51c.37-.33.8-.5,1.23-.5.82,0,1.57.6,2,1.61.33.77.43,1.68.28,2.56-.15.88-.52,1.62-1.06,2.09l-59.64,52.51c-.37.33-.8.5-1.23.5Z"/>
          </g>
        </g>
        <g id="Ladder">
          <rect class="st0" x="736.59" y="721.21" width="7.3" height="63.97" rx=".61" ry=".61" transform="translate(1493.44 12.96) rotate(90)"/>
          <rect class="st0" x="736.59" y="825.96" width="7.3" height="63.97" rx=".61" ry=".61" transform="translate(1598.18 117.7) rotate(90)"/>
          <rect class="st0" x="736.59" y="930.7" width="7.3" height="63.97" rx=".61" ry=".61" transform="translate(1702.93 222.45) rotate(90)"/>
          <rect class="st0" x="736.59" y="1035.45" width="7.3" height="63.97" rx=".61" ry=".61" transform="translate(1807.67 327.19) rotate(90)"/>
          <rect class="st0" x="736.59" y="1140.19" width="7.3" height="63.97" rx=".61" ry=".61" transform="translate(1912.42 431.94) rotate(90)"/>
          <rect class="st0" x="736.59" y="1244.94" width="7.3" height="63.97" rx=".61" ry=".61" transform="translate(2017.17 536.68) rotate(90)"/>
          <rect class="st0" x="736.59" y="1349.68" width="7.29" height="63.97" rx=".61" ry=".61" transform="translate(2121.9 641.42) rotate(90)"/>
          <rect class="st0" x="736.59" y="1452.09" width="7.3" height="63.97" rx=".61" ry=".61" transform="translate(2224.32 743.83) rotate(90)"/>
          <rect class="st0" x="736.59" y="1554.5" width="7.3" height="63.97" rx=".61" ry=".61" transform="translate(2326.73 846.24) rotate(90)"/>
        </g>
        <g id="Frame">
          <path class="st0" d="M733.81,647.18h17.9c.34,0,.61.27.61.61v56.04c0,.34-.27.61-.61.61h-17.9c-5.46,0-9.89-4.43-9.89-9.89v-37.48c0-5.46,4.43-9.89,9.89-9.89Z" transform="translate(1413.93 -62.3) rotate(90)"/>
          <g>
            <rect x="260.23" y="1142.14" width="900" height="8.66" rx="1.22" ry="1.22" transform="translate(1856.71 436.24) rotate(90)"/>
            <rect x="319.88" y="1142.14" width="900" height="8.66" rx="1.22" ry="1.22" transform="translate(1916.35 376.6) rotate(90)"/>
            <rect class="st0" x="730.12" y="671.87" width="19.87" height="68.3" rx="1.22" ry="1.22" transform="translate(1446.08 -34.03) rotate(90)"/>
          </g>
        </g>
      </g>
      <path id="Base" d="M747.72,1488.88h9.95c.34,0,.61.27.61.61v238.23c0,.34-.27.61-.61.61h-9.95c-14.29,0-25.89-11.6-25.89-25.89v-187.67c0-14.29,11.6-25.89,25.89-25.89Z" transform="translate(2348.66 868.55) rotate(90)"/>
      <g id="Strings">
        <g id="Apex">
          <path d="M778.6,678.74c-1.42,0-2.65-1.01-2.93-2.4l-28.34-131.84h-9.97l-32.9,131.74c-.25,1.44-1.49,2.49-2.95,2.49-.16,0-.33-.01-.49-.04-.79-.13-1.48-.56-1.95-1.22-.46-.65-.65-1.44-.51-2.23l33.32-134.24c.24-1.44,1.48-2.49,2.95-2.49h14.94c1.41,0,2.65,1.01,2.93,2.39l28.83,134.24c.16.78,0,1.58-.44,2.25-.44.67-1.12,1.12-1.9,1.28-.2.04-.4.06-.6.06Z"/>
        </g>
        <g id="Rope">
          <path class="st0" d="M735.78,540.85c-.36-.52-1.08-.65-1.6-.29l-156.63,144.33c.56.54,1.13,1.08,1.71,1.61l156.23-144.05c.52-.36.65-1.08.29-1.6Z"/>
        </g>
        <g id="Rope1" data-name="Rope">
          <path class="st0" d="M1000.83,683.33l-251.7-140.86c-.53-.36-.66-1.07-.31-1.6.36-.53,1.07-.66,1.6-.31l251.89,141"/>
        </g>
        <g id="Rope2" data-name="Rope">
          <path class="st0" d="M1085.44,646.11l-336.04-103.51c-.6-.21-.92-.86-.71-1.46.21-.6.87-.92,1.46-.71l336.26,103.59"/>
        </g>
        <g id="Grip">
          <path d="M573.09,678.19c-.7,0-1.27-.57-1.27-1.27,0-8.09,6.58-14.68,14.68-14.68h23.14c8.09,0,14.68,6.58,14.68,14.68,0,.7-.57,1.27-1.27,1.27h-49.96Z"/>
        </g>
      </g>
      <g id="Arm">
        <path id="Right_arm" d="M1400.89,708.1h53.15v104.52c0,8.83-7.17,16-16,16h-27.26c-5.46,0-9.89-4.43-9.89-9.89v-110.63h0Z"/>
        <g id="Ascender">
          <path d="M1125.29,577.99h16.85c8.83,0,16,7.17,16,16v21.15c0,8.83-7.17,16-16,16h-16.85v-53.15h0Z"/>
          <path d="M1082.03,577.99h43.26v145.21h-53.15v-135.32c0-5.46,4.43-9.89,9.89-9.89Z"/>
        </g>
        <path id="Left_arm" d="M481.96,670.05h37.15v169.11c0,14.29-11.6,25.89-25.89,25.89h-11.26c-8.83,0-16-7.17-16-16v-163c0-8.83,7.17-16,16-16Z"/>
        <path id="Arm1" data-name="Arm" d="M933.43,202.59h37.15c8.83,0,16,7.17,16,16v956.08c0,8.83-7.17,16-16,16h-27.26c-5.46,0-9.89-4.43-9.89-9.89V202.59h0Z" transform="translate(263.37 1656.63) rotate(-90)"/>
      </g>
    </g>
    <g id="Hook">
      <path class="st0" d="M1098.72,810.13c-5.11,0-9.27-4.16-9.27-9.27,0-.95.77-1.72,1.72-1.72s1.72.77,1.72,1.72c0,3.21,2.61,5.82,5.82,5.82s5.82-2.61,5.82-5.82-2.61-5.82-5.82-5.82c-.95,0-1.72-.77-1.72-1.72v-4.81c0-.95.77-1.72,1.72-1.72s1.72.77,1.72,1.72v3.25c4.29.81,7.54,4.59,7.54,9.11,0,5.11-4.16,9.27-9.27,9.27Z"/>
      <path d="M1078.12,730.15c-3.13,0-5.67-2.55-5.67-5.67,0-.7.57-1.27,1.27-1.27h50c.7,0,1.27.57,1.27,1.27,0,3.13-2.55,5.67-5.67,5.67h-41.19Z"/>
      <g>
        <path class="st0" d="M1092.4,755.81c-.64,0-1.15-.16-1.15-.37v-26.96c0-.2.51-.37,1.15-.37s1.15.16,1.15.37v26.96c0,.2-.51.37-1.15.37Z"/>
        <path class="st0" d="M1105.04,755.81c-.64,0-1.15-.16-1.15-.37v-26.96c0-.2.51-.37,1.15-.37s1.15.16,1.15.37v26.96c0,.2-.51.37-1.15.37Z"/>
      </g>
      <path d="M1091.82,788.82c-2.54,0-4.68-1.82-5.09-4.32l-5.04-30.73c-.25-1.5.18-3.02,1.16-4.17.98-1.16,2.41-1.82,3.93-1.82h23.89c1.54,0,2.98.68,3.96,1.86.98,1.18,1.39,2.72,1.11,4.23l-5.66,30.73c-.45,2.45-2.58,4.22-5.07,4.22h-13.19Z"/>
    </g>
    <g id="Car">
      <path id="Car:_Bottom" d="M774.21,735.81h0c11.2,0,20.3,9.1,20.3,20.3v12.55h-20.3v-32.85h0Z"/>
      <path id="Car:_Top" d="M774.21,767.7h43.26c5.46,0,9.89,4.43,9.89,9.89v17.37c0,14.29-11.6,25.89-25.89,25.89h-27.26v-53.15h0Z"/>
    </g>
  </g>
</svg>