<?xml version="1.0" encoding="UTF-8" standalone="no"?>
<svg
   width="133.966"
   height="145.133"
   viewBox="0 0 133.966 145.13299"
   fill="none"
   version="1.1"
   id="svg241"
   sodipodi:docname="maribank.svg"
   inkscape:version="1.2.2 (b0a8486541, 2022-12-01)"
   inkscape:export-filename="maribank.png"
   inkscape:export-xdpi="338.67001"
   inkscape:export-ydpi="338.67001"
   xmlns:inkscape="http://www.inkscape.org/namespaces/inkscape"
   xmlns:sodipodi="http://sodipodi.sourceforge.net/DTD/sodipodi-0.dtd"
   xmlns="http://www.w3.org/2000/svg"
   xmlns:svg="http://www.w3.org/2000/svg">
  <defs
     id="defs245" />
  <sodipodi:namedview
     id="namedview243"
     pagecolor="#ffffff"
     bordercolor="#000000"
     borderopacity="0.25"
     inkscape:showpageshadow="2"
     inkscape:pageopacity="0.0"
     inkscape:pagecheckerboard="0"
     inkscape:deskcolor="#d1d1d1"
     showgrid="false"
     inkscape:zoom="1.8058824"
     inkscape:cx="340.27687"
     inkscape:cy="73.094463"
     inkscape:window-width="1920"
     inkscape:window-height="978"
     inkscape:window-x="0"
     inkscape:window-y="0"
     inkscape:window-maximized="1"
     inkscape:current-layer="svg241" />
  <path
     d="m 34.0911,120.10511 c 10.5465,-0.581 19.1954,3.113 28.3932,7.018 10.3348,4.422 21.0303,8.923 35.9914,8.319 3.7643,-0.157 7.4803,-0.862 11.0403,-2.093 1.184,-0.338 2.462,-0.204 3.552,0.368 1.09,0.573 1.921,1.545 2.313,2.713 0.393,1.169 0.322,2.447 -0.196,3.568 -0.517,1.121 -1.45,1.992 -2.603,2.446 -4.43,1.553 -9.064,2.431 -13.7534,2.604 -1.78,0.062 -3.5992,0.117 -5.3478,0.062 -14.3416,-0.415 -25.1077,-4.987 -34.7446,-9.088 -8.4686,-3.622 -15.8315,-6.688 -23.9708,-6.296 -4.3127,0.423 -8.4372,1.984 -11.9579,4.509 -0.9958,0.799 -2.274,1.176 -3.5442,1.043 -1.2703,-0.142 -2.4387,-0.777 -3.2385,-1.773 -0.7998,-0.995 -1.1762,-2.274 -1.035,-3.544 0.1411,-1.27 0.7763,-2.438 1.7721,-3.238 5.0576,-3.764 11.0483,-6.054 17.3292,-6.626 z m -0.2274,-14.742 c 15.2748,-0.643 25.4057,3.803 35.1916,8.045 9.2997,4.039 18.0584,7.881 31.4827,7.324 10.499,-0.431 19.729,-5.771 24.292,-8.947 1.09,-0.706 2.407,-0.957 3.678,-0.706 1.27,0.251 2.391,0.988 3.128,2.055 0.738,1.066 1.028,2.376 0.816,3.654 -0.212,1.278 -0.918,2.423 -1.96,3.191 -5.466,3.772 -16.553,10.178 -29.554,10.672 -1.4978,0.11 -2.9955,0.141 -4.501,0.094 -13.2596,-0.282 -22.4731,-4.281 -31.42,-8.202 -9.1429,-3.999 -17.784,-7.755 -30.7926,-7.229 -11.2287,0.454 -21.1793,7.198 -26.1035799,11.173 -1.03505,0.832 -2.35238,1.216 -3.66971,1.075 -1.31734,-0.141 -2.52489,-0.8 -3.34822,-1.835 -0.83117897,-1.035 -1.21540097,-2.352 -1.07425777,-3.67 0.1411428,-1.317 0.7998088,-2.525 1.83485777,-3.348 5.86526,-4.76 17.8389099,-12.805 31.9924099,-13.354 z"
     fill="#2673dd"
     id="path235" />
  <path
     d="m 67.0713,5.3741307e-5 c 8.782,0 17.486,1.732931058693 25.6016,5.088871058693 8.1161,3.3639 15.4871,8.2886902 21.7051,14.4989902 6.21,6.2102 11.134,13.5886 14.498,21.7041 3.364,8.1156 5.09,16.8117 5.09,25.6016 0,17.1802 -6.478,32.0943 -17.056,43.911495 -4.148,1.936 -9.087,4.274 -14.317,4.564 -1.631,0.094 -3.2076,0.125 -4.7131,0.094 9.8091,-6.25 17.4941,-15.33 22.0421,-26.033395 4.548,-10.7031 5.747,-22.5355 3.434,-33.9365 -2.313,-11.4012 -8.022,-21.8307 -16.388,-29.9228 -8.359,-8.0843 -18.9759,-13.4559 -30.4475,-15.3848 -11.4716,-1.9367802 -23.2573,-0.3450002 -33.8115,4.5556 -10.5464,4.9008 -19.3679,12.8835 -25.2881,22.8965 -5.9201,10.0133 -8.6727599,21.5874 -7.8886699,33.1924 0.7841699,11.6051 5.0731699,22.7009 12.2870699,31.819995 -3.0657,0.918 -6.0608,2.078 -8.9463,3.474 C 5.6356101,96.142215 1.2916301,84.348815 0.33496113,72.053715 -0.62951187,59.758715 1.8320001,47.431915 7.4384801,36.446315 13.045,25.460715 21.5844,16.239415 32.1074,9.8096248 42.6382,3.3798448 54.7371,-0.01557952 67.0713,5.3741307e-5 Z M 67.0557,13.847715 c 12.0284,0 23.6883,4.1169 33.0503,11.668 9.363,7.5511 15.855,18.0741 18.404,29.8203 2.548,11.754 1.004,24.026 -4.383,34.7685 -5.387,10.750595 -14.295,19.328595 -25.2413,24.315595 -6.5237,-1.223 -12.1301,-3.513 -17.9404,-5.889 l -0.1338,-0.054 c -10.1544,-4.164 -21.7357,-8.908495 -38.4531,-7.889 -1.6623,0.102 -3.3172,0.298 -4.9639,0.58 -6.6571,-7.613895 -10.9858,-16.983995 -12.4599,-26.989395 -1.4742,-10.0054 -0.031,-20.223 4.1484,-29.4365 4.1794,-9.2055 10.9308,-17.0151 19.4385,-22.4883 8.5077,-5.4731 18.4034,-8.3828 28.5185,-8.375 v -0.0312 z m -24.9825,74.625 h 9.5664 v -29.4434 c 0.196,0.0706 0.361,0.2192 0.4551,0.4151 3.5516,6.5086 10.6077,19.8935 10.6407,19.956 h 8.8291 c 0.0326,-0.0635 6.5479,-12.7254 9.8173,-18.7246 0.3215,-0.6194 0.7058,-1.2233 1.0586,-1.8349 l 0.2198,0.0703 v 29.5459 h 9.4169 l 0.0469,-49.1407 c -0.1253,-0.0546 -9.4313,-3e-4 -9.5029,0 -0.0047,0.0098 -1.1856,2.4797 -1.7568,3.5362 -4.1715,7.6686 -8.3432,15.3294 -12.5147,22.998 -0.3763,0.6586 -0.7846,1.3958 -1.2236,2.1328 -0.1722,-0.2426 -0.2508,-0.3366 -0.3057,-0.4463 -5.0262,-9.1899 -10.468,-19.1644 -15.4551,-28.3779 h -9.292 z"
     fill="#ea5f00"
     id="path237" />
</svg>
